<?xml version="1.0" encoding="UTF-8" standalone="no"?>
<!-- Created with Inkscape (http://www.inkscape.org/) -->

<svg
   width="773.58514mm"
   height="847.50281mm"
   viewBox="0 0 773.58515 847.5028"
   version="1.1"
   id="svg8"
   xmlns="http://www.w3.org/2000/svg"
   xmlns:svg="http://www.w3.org/2000/svg"
   xmlns:rdf="http://www.w3.org/1999/02/22-rdf-syntax-ns#"
   xmlns:cc="http://creativecommons.org/ns#"
   xmlns:dc="http://purl.org/dc/elements/1.1/">
  <defs
     id="defs2" />
  <metadata
     id="metadata5">
    <rdf:RDF>
      <cc:Work
         rdf:about="">
        <dc:format>image/svg+xml</dc:format>
        <dc:type
           rdf:resource="http://purl.org/dc/dcmitype/StillImage" />
      </cc:Work>
    </rdf:RDF>
  </metadata>
  <g
     id="layer1"
     transform="translate(359.52661,203.5864)">
    <g
       id="surface187"
       transform="matrix(1.1430405,0,0,1.1430405,-347.69894,-20.803325)">
      <path
         id="path991"
         d="m 79.734375,146.13672 0.515625,-0.31641 0.519531,-0.3125 0.515625,-0.3125 1.039063,-0.61719 0.515625,-0.30468 0.519531,-0.30078 0.515625,-0.30079 0.519531,-0.30078 0.515625,-0.29297 0.519532,-0.29687 0.519531,-0.28906 0.515625,-0.28907 0.519531,-0.28906 0.515625,-0.28125 0.519531,-0.28515 0.515625,-0.27735 1.039063,-0.55469 0.515625,-0.27343 0.519531,-0.26953 0.515625,-0.26954 0.519531,-0.26562 0.515625,-0.26172 0.519532,-0.26172 0.519531,-0.25781 0.515625,-0.25781 0.519531,-0.25391 0.515625,-0.25 0.519531,-0.25 0.515625,-0.24609 0.519532,-0.2461 0.519531,-0.24218 0.515625,-0.23829 0.519531,-0.23828 0.515625,-0.23437 0.519531,-0.23047 0.515625,-0.23047 1.039064,-0.45312 0.51562,-0.21875 0.51954,-0.22266 0.51562,-0.21484 0.51953,-0.21485 0.51563,-0.21484 1.03906,-0.41406 0.51562,-0.20704 0.51954,-0.20312 0.51562,-0.19922 0.51953,-0.19531 0.51563,-0.19531 1.03906,-0.38282 0.51562,-0.1875 0.51954,-0.18359 0.51562,-0.18359 0.51953,-0.17969 0.51563,-0.17578 0.51953,-0.17578 0.51562,-0.16797 0.51953,-0.17188 0.51954,-0.16406 0.51562,-0.16406 0.51953,-0.16407 0.51563,-0.15625 0.51953,-0.15625 0.51562,-0.15625 1.03907,-0.29687 0.51562,-0.14844 0.51953,-0.14062 0.51563,-0.14063 0.51953,-0.14062 0.51562,-0.13282 1.03907,-0.26562 0.51562,-0.125 0.51953,-0.125 0.51563,-0.12109 0.51953,-0.1211 0.51562,-0.11719 1.03907,-0.22656 0.51562,-0.10547 0.51953,-0.10937 0.51563,-0.10156 0.51953,-0.10157 0.51562,-0.0977 0.51953,-0.0977 0.51954,-0.0898 0.51562,-0.0898 0.51953,-0.0898 0.51563,-0.0859 0.51953,-0.082 0.51562,-0.0781 0.51953,-0.0781 0.51953,-0.0742 0.51563,-0.0703 0.51953,-0.0664 0.51563,-0.0664 0.51953,-0.0664 0.51562,-0.0586 0.51953,-0.0586 0.51953,-0.0547 0.51563,-0.0508 0.51953,-0.0508 0.51563,-0.0469 0.51953,-0.0469 0.51562,-0.0391 1.03906,-0.0781 0.51563,-0.0312 0.51953,-0.0312 0.51563,-0.0273 0.51953,-0.0273 0.51562,-0.0234 0.51953,-0.0195 0.51953,-0.0156 0.51563,-0.0156 0.51953,-0.0117 0.51563,-0.008 0.51953,-0.008 0.51562,-0.004 h 1.03906 l 0.51563,0.004 0.51953,0.008 0.51563,0.0117 0.51953,0.0117 0.51562,0.0156 0.51953,0.0156 0.51953,0.0234 0.51563,0.0234 0.51953,0.0234 0.51563,0.0312 0.51953,0.0312 0.51562,0.0352 0.51953,0.0352 0.51953,0.0391 0.51563,0.043 0.51953,0.0469 0.51563,0.0469 0.51953,0.0508 0.51562,0.0508 1.03906,0.11718 0.51563,0.0586 0.51953,0.0664 0.51563,0.0664 0.51953,0.0703 0.51562,0.0703 0.51953,0.0742 0.51563,0.0781 1.03906,0.16406 0.51563,0.0859 0.51953,0.0859 0.51562,0.0898 0.51953,0.0937 0.51563,0.0977 0.51953,0.0977 0.51953,0.10156 0.51563,0.10547 0.51953,0.10547 0.51562,0.10938 0.51953,0.11328 0.51563,0.11718 1.03906,0.23438 0.51563,0.125 0.51953,0.125 0.51562,0.12891 0.51953,0.1289 0.51563,0.13281 0.51953,0.13672 0.51953,0.14063 0.51563,0.14062 0.51953,0.14453 0.51562,0.14454 0.51953,0.14843 0.51563,0.15235 1.03906,0.3125 0.51563,0.16015 0.51953,0.16016 0.51562,0.16406 0.51953,0.16797 0.51563,0.16797 0.51953,0.17578 0.51953,0.17188 0.51563,0.17968 0.51953,0.17969 0.51562,0.18359 0.51953,0.1836 0.51563,0.1875 1.03906,0.38281 0.51563,0.19531 0.51953,0.19922 0.51562,0.19922 0.51953,0.20313 0.51563,0.20703 0.51953,0.20703 0.51953,0.21094 0.51563,0.21093 0.51953,0.21875 0.51562,0.21485 0.51953,0.22265 0.51563,0.22266 0.51953,0.22266 0.51953,0.23046 0.51563,0.23047 0.51953,0.23047 0.51562,0.23828 0.51953,0.23438 0.51563,0.24219 0.51953,0.24218 0.51953,0.2461 0.51563,0.24609 0.51953,0.25 0.51562,0.25 0.51953,0.25781 0.51563,0.25391 1.03906,0.52344 0.51563,0.26172 0.51953,0.26562 0.51562,0.26953 0.51953,0.27344 0.51563,0.27344 0.51953,0.27343 0.51953,0.27735 0.51563,0.28125 0.51953,0.28515 0.51562,0.28516 0.51953,0.28516 0.51563,0.28906 1.03906,0.58594 0.51563,0.29687 0.51953,0.30078 0.51562,0.30078 0.51953,0.30469 0.51563,0.30469 0.51953,0.30859 0.51562,0.3086 1.03907,0.625 0.51562,0.3164 0.51953,0.32032 0.51563,0.32031 0.51953,0.32422 0.51562,0.32422 1.03907,0.65625 0.51562,0.33203 0.51953,0.33593 0.51563,0.33594 0.51953,0.33594 0.51562,0.34375 0.51954,0.33984 0.51953,0.34375 0.51562,0.34766 0.51953,0.34766 0.51563,0.35156 0.51953,0.35547 0.51562,0.35156 1.03907,0.71875 0.51562,0.35937 0.51953,0.36329 0.51563,0.36328 0.51953,0.36718 0.51562,0.3711 1.03907,0.74219 0.51562,0.375 0.51953,0.3789 0.51563,0.375 0.51953,0.38281 0.51562,0.38282 0.51954,0.38281 0.51953,0.38672 0.51562,0.39062 0.51953,0.38672 0.51563,0.39453 0.51953,0.39453 0.51562,0.39454 1.03907,0.79687 0.51562,0.40234 0.51953,0.40235 0.51563,0.40625 0.51953,0.40625 0.51562,0.40625 0.51954,0.41015 0.51953,0.41407 0.51562,0.41406 0.51953,0.41406 0.51563,0.41797 0.51953,0.41797 0.51562,0.42187 1.03907,0.84375 0.51562,0.42579 0.51953,0.42968 0.51563,0.42578 0.51953,0.4336 0.51562,0.42969 0.51954,0.43359 0.51953,0.4375 0.51562,0.4375 0.51953,0.4375 0.51563,0.44141 0.51953,0.4414 0.51562,0.44141 1.03907,0.89062 0.51562,0.44922 0.51953,0.44922 0.51563,0.45313 0.51953,0.44921 0.51562,0.45704 0.51954,0.45312 0.51953,0.45703 0.51562,0.45703 0.51953,0.46094 0.51563,0.46094 0.51953,0.46094 0.51562,0.46484 0.51954,0.46484 0.51953,0.46875 0.51562,0.46875 0.51953,0.46875 0.51563,0.46875 0.51953,0.47266 0.51562,0.47266 1.03907,0.95312 0.51562,0.47656 0.51953,0.47657 0.51563,0.48046 0.51953,0.48047 0.51562,0.48438 0.51954,0.48047 0.51562,0.48437 0.51953,0.48828 0.51953,0.48438 0.51563,0.48828 0.51953,0.48828 0.51562,0.49219 0.51954,0.49219 0.51562,0.49218 0.51953,0.49219 0.51953,0.49609 0.51563,0.4961 0.51953,0.49609 0.51562,0.5 0.51954,0.4961 0.51562,0.5 0.51953,0.5039 0.51953,0.5 0.51563,0.50391 0.51953,0.5039 0.51562,0.50391 0.51954,0.50781 0.51562,0.50782 1.03906,1.01562 0.51563,0.50781 0.51953,0.51172 0.51562,0.51172 0.51954,0.51172 0.51562,0.51172 1.03906,1.03125 0.51563,0.51562 0.51953,0.51563 1.03516,1.03515 0.51562,0.51954 1.03906,1.03906 0.51563,0.51953 0.51953,0.52344 0.51562,0.51953 0.51954,0.52344 0.51562,0.52343 0.51953,0.52344 0.51953,0.52734 0.51563,0.52344 0.51953,0.52735 0.51562,0.52734 0.51954,0.52734 0.51562,0.52735 0.51953,0.52734 0.51953,0.53125 0.51563,0.52734 0.51953,0.53125 0.51562,0.53125 0.51954,0.52735 0.51562,0.53515 1.03906,1.0625 0.51563,0.53125 0.51953,0.53516 0.51562,0.53516 0.51954,0.53125 0.51562,0.53515 1.03906,1.07032 0.51563,0.53515 0.51953,0.53516 0.51562,0.53515 0.51954,0.53907 0.51562,0.53515 0.51953,0.53907 0.51953,0.53515 0.51563,0.53906 0.51953,0.53516 0.51562,0.53906 0.51954,0.53907 0.51562,0.53906 0.51953,0.53906 0.51953,0.53516 0.51563,0.53906 0.51953,0.53906 0.51562,0.53906 0.51954,0.53907 0.51562,0.53906 0.51953,0.54297 0.51953,0.53906 0.51563,0.53906 0.51953,0.53907 0.51562,0.53906 0.51954,0.53906 0.51562,0.53906 0.51953,0.53907 0.51563,0.54296 1.03906,1.07813 0.51562,0.53906 0.51954,0.53906 0.51562,0.53907 0.51953,0.53906 0.51563,0.53906 1.03906,1.07813 0.51562,0.53906 0.51954,0.53906 0.51562,0.53516 0.51953,0.53906 0.51563,0.53906 0.51953,0.53516 0.51953,0.53906 0.51562,0.53516 0.51954,0.53906 0.51562,0.53516 0.51953,0.53515 0.51563,0.53516 0.51953,0.53906 0.51953,0.53516 0.51562,0.53515 0.51954,0.53125 0.51562,0.53516 0.51953,0.53516 0.51563,0.53125 0.51953,0.53515 0.51953,0.53125 0.51562,0.53125 0.51954,0.53125 0.51562,0.53125 0.51953,0.53125 0.51563,0.53125 0.51953,0.52735 0.51953,0.53125 0.51562,0.52734 0.51954,0.52734 0.51562,0.52735 0.51953,0.52734 0.51563,0.52735 0.51953,0.52343 0.51953,0.52735 0.51562,0.52343 0.51954,0.52344 0.51562,0.52344 0.51953,0.51953 0.51563,0.52344 1.03906,1.03906 0.51562,0.51953 0.51954,0.51953 0.51562,0.51953 0.51953,0.51563 0.51563,0.51562 1.03906,1.03125 0.51562,0.51563 0.51954,0.51172 0.51562,0.51172 0.51953,0.51172 0.51563,0.51171 0.51953,0.51172 0.51953,0.50782 0.51562,0.50781 0.51954,0.50781 0.51562,0.50391 0.51953,0.5039 0.51563,0.50782 0.51953,0.5 0.51953,0.5039 0.51562,0.5 0.51954,0.5 0.51562,0.5 0.51953,0.5 0.51563,0.4961 1.03906,0.99218 0.51562,0.49219 0.51954,0.49219 0.51562,0.49219 0.51953,0.49218 0.51563,0.48828 0.51953,0.48829 0.51953,0.48437 0.51562,0.48828 0.51954,0.48438 0.51562,0.48437 0.51953,0.48047 0.51563,0.48047 0.51953,0.48047 0.51562,0.48047 1.03907,0.95312 0.51562,0.47266 0.51953,0.47265 0.51563,0.47266 0.51953,0.47266 0.51562,0.46875 0.51953,0.46875 0.51954,0.46484 0.51562,0.46875 0.51953,0.46094 0.51563,0.46484 0.51953,0.46094 0.51562,0.46094 1.03907,0.91406 0.51562,0.45703 0.51953,0.45313 0.51563,0.45312 0.51953,0.44922 0.51562,0.44922 0.51953,0.44922 0.51954,0.44531 0.51562,0.44531 0.51953,0.44531 0.51563,0.44141 0.51953,0.44141 0.51562,0.4375 0.51953,0.4375 0.51954,0.43359 0.51562,0.4375 0.51953,0.42969 0.51563,0.43359 0.51953,0.42578 0.51562,0.42969 0.51953,0.42578 0.51954,0.42188 0.51562,0.42578 0.51953,0.41797 0.51563,0.42187 0.51953,0.41406 0.51562,0.41797 0.51953,0.41407 0.51954,0.41015 0.51562,0.41016 0.51953,0.41015 0.51563,0.40625 0.51953,0.40625 0.51562,0.40235 0.51953,0.40234 0.51954,0.39844 0.51562,0.39844 0.51953,0.39453 0.51563,0.39453 0.51953,0.39453 0.51562,0.39063 1.03907,0.77343 0.51562,0.38282 0.51953,0.38281 0.51563,0.38281 0.51953,0.37891 0.51562,0.3789 0.51953,0.375 0.51954,0.3711 0.51562,0.37109 0.51953,0.37109 0.51563,0.36719 0.51953,0.36328 0.51562,0.36328 0.51953,0.36329 0.51954,0.35546 0.51562,0.35938 0.51953,0.35547 0.51563,0.35156 0.51953,0.35156 0.51562,0.34766 0.51953,0.34766 0.51954,0.34375 0.51562,0.34375 0.51953,0.33984 0.51563,0.33984 0.51953,0.33594 0.51562,0.33594 0.51953,0.33203 0.51954,0.32812 0.51562,0.32813 0.51953,0.32422 0.51563,0.32422 0.51953,0.32031 0.51562,0.32031 0.51953,0.31641 0.51563,0.3164 0.51953,0.3125 0.51953,0.3086 0.51563,0.30859 0.51953,0.30469 0.51562,0.30469 0.51953,0.30078 0.51563,0.30078 0.51953,0.29687 0.51953,0.29297 0.51563,0.29297 0.51953,0.28906 0.51562,0.28907 0.51953,0.28515 0.51563,0.28125 1.03906,0.5625 0.51563,0.27344 0.51953,0.27344 0.51562,0.27344 0.51953,0.26953 0.51563,0.26562 0.51953,0.26563 0.51953,0.26172 0.51563,0.25781 0.51953,0.25781 0.51562,0.25391 0.51953,0.2539 0.51563,0.25 1.03906,0.49219 0.51563,0.24219 0.51953,0.24219 0.51562,0.23828 0.51953,0.23437 0.51563,0.23438 0.51953,0.23047 0.51953,0.22656 0.51563,0.22656 0.51953,0.22266 0.51562,0.21875 0.51953,0.21875 0.51563,0.21484 0.51953,0.21484 0.51953,0.21094 0.51563,0.20703 0.51953,0.20703 0.51562,0.20313 0.51953,0.19922 0.51563,0.19922 1.03906,0.39062 0.51563,0.1875 0.51953,0.19141 0.51562,0.18359 0.51953,0.1836 0.51563,0.17968 0.51953,0.17969 0.51953,0.17188 0.51563,0.17578 0.51953,0.16797 0.51562,0.16796 0.51953,0.16407 0.51563,0.16406 0.51953,0.16016 0.51953,0.15625 0.51563,0.15625 0.51953,0.15234 0.51562,0.14844 0.51953,0.14453 0.51563,0.14453 0.51953,0.14453 0.51953,0.13672 0.51563,0.13672 0.51953,0.13281 0.51562,0.13281 0.51953,0.12891 0.51563,0.125 1.03906,0.24219 0.51563,0.11718 0.51953,0.11719 0.51562,0.11328 0.51953,0.10938 0.51563,0.10547 0.51953,0.10547 0.51953,0.10156 0.51563,0.0976 0.51953,0.0977 0.51562,0.0937 0.51953,0.0937 0.51563,0.0859 0.51953,0.0859 0.51563,0.082 0.51953,0.082 0.51953,0.0781 0.51562,0.0742 0.51953,0.0742 0.51563,0.0703 0.51953,0.0664 0.51563,0.0625 0.51953,0.0625 0.51953,0.0586 0.51562,0.0547 0.51953,0.0547 0.51563,0.0508 0.51953,0.0508 0.51563,0.043 0.51953,0.043 0.51953,0.0391 0.51562,0.0391 0.51953,0.0352 0.51563,0.0312 0.51953,0.0273 0.51563,0.0274 1.03906,0.0469 0.51562,0.0156 0.51953,0.0156 0.51563,0.0156 0.51953,0.008 0.51563,0.008 1.03906,0.008 h 0.51562 l 0.51953,-0.004 0.51563,-0.008 0.51953,-0.008 0.51563,-0.0117 1.03906,-0.0312 0.51562,-0.0195 0.51953,-0.0234 0.51563,-0.0234 0.51953,-0.0274 0.51563,-0.0312 1.03906,-0.0703 0.51562,-0.0391 0.51953,-0.0391 0.51563,-0.0469 0.51953,-0.0469 0.51563,-0.0469 1.03906,-0.10937 0.51562,-0.0547 0.51953,-0.0625 0.51563,-0.0625 0.51953,-0.0664 0.51563,-0.0664 0.51953,-0.0703 0.51953,-0.0742 0.51562,-0.0781 0.51953,-0.0781 0.51563,-0.082 0.51953,-0.0859 0.51563,-0.0859 0.51953,-0.0898 0.51953,-0.0937 0.51562,-0.0937 0.51953,-0.0977 0.51563,-0.10156 0.51953,-0.10157 0.51563,-0.10546 0.51953,-0.10938 0.51953,-0.11328 0.51562,-0.11328 0.51953,-0.11719 0.51563,-0.11719 0.51953,-0.12109 0.51563,-0.125 1.03906,-0.25781 0.51562,-0.13282 0.51953,-0.13281 0.51563,-0.14062 0.51953,-0.13672 0.51563,-0.14453 0.51953,-0.14453 0.51953,-0.14844 0.51562,-0.15235 0.51953,-0.15234 0.51563,-0.15625 0.51953,-0.16016 0.51563,-0.16015 0.51953,-0.16406 0.51562,-0.16407 0.51953,-0.16797 0.51953,-0.17187 0.51563,-0.17578 0.51953,-0.17578 0.51563,-0.17969 0.51953,-0.17969 0.51562,-0.1875 0.51953,-0.18359 0.51953,-0.19141 0.51563,-0.1914 0.51953,-0.19532 0.51563,-0.19531 0.51953,-0.19922 0.51562,-0.20312 0.51953,-0.20313 0.51953,-0.20703 0.51563,-0.21094 0.51953,-0.21093 0.51563,-0.21485 0.51953,-0.21875 0.51562,-0.21875 1.03906,-0.44531 0.51563,-0.22656 0.51953,-0.23047 0.51563,-0.23047 0.51953,-0.23438 0.51562,-0.23828 0.51953,-0.23828 0.51953,-0.24219 0.51563,-0.24218 0.51953,-0.2461 0.51563,-0.25 0.51953,-0.25 0.51562,-0.2539 1.03906,-0.51563 0.51563,-0.26172 0.51953,-0.26172 0.51563,-0.26562 0.51953,-0.26953 0.51562,-0.26953 1.03906,-0.54688 0.51563,-0.27734 0.51953,-0.28125 0.51563,-0.28125 0.51953,-0.28516 0.51562,-0.28515 1.03906,-0.57813 0.51563,-0.29297 0.51953,-0.29687 0.51563,-0.29688 0.51953,-0.30078 0.51562,-0.30469 1.03906,-0.60937 0.51563,-0.3086 0.51953,-0.3125 0.51563,-0.3125 0.51953,-0.3164 0.51562,-0.32031 1.03906,-0.64063 0.51563,-0.32422 0.51953,-0.32812 0.51563,-0.32813 0.51953,-0.33203 0.51562,-0.33203 1.03906,-0.67188 0.51563,-0.33984 0.51953,-0.34375 0.51563,-0.34375 0.51953,-0.34375 0.51562,-0.34766 1.03906,-0.70312 0.51563,-0.35547 0.51953,-0.35547 0.51563,-0.35547 0.51953,-0.36328 0.51562,-0.35937 0.51953,-0.36719 0.51953,-0.36328 0.51563,-0.3711 0.51953,-0.36718 0.51563,-0.375 0.51953,-0.3711 0.51562,-0.3789 0.51953,-0.375 0.51563,-0.38282 0.51953,-0.3789 0.51953,-0.38672 0.51563,-0.38281 0.51953,-0.39063 0.51562,-0.38672 0.51953,-0.39453 0.51563,-0.39062 0.51953,-0.39453 0.51953,-0.39844 0.51563,-0.39844 0.51953,-0.40234 0.51562,-0.40235 0.51953,-0.40234 0.51563,-0.40625 0.51953,-0.40625 0.51953,-0.41016 0.51563,-0.41015 0.51953,-0.41407 0.51562,-0.41406 0.51953,-0.41797 0.51563,-0.41797 0.51953,-0.42187 0.51953,-0.41797 0.51563,-0.42578 0.51953,-0.42578 0.51562,-0.42578 0.51953,-0.42969 0.51563,-0.42969 0.51953,-0.42969 0.51953,-0.43359 0.51563,-0.43359 0.51953,-0.4375 0.51562,-0.4375 0.51953,-0.44141 0.51563,-0.44141 0.51953,-0.4414 0.51953,-0.44531 0.51563,-0.44532 0.51953,-0.44531 0.51562,-0.44922 0.51953,-0.45312 0.51563,-0.44922 0.51953,-0.45313 0.51953,-0.45703 0.51563,-0.45703 0.51953,-0.45703 0.51562,-0.45703 0.51953,-0.46094 0.51563,-0.46094 1.03906,-0.92968 0.51563,-0.46485 0.51953,-0.46875 0.51562,-0.46875 0.51953,-0.46875 0.51563,-0.47265 1.03906,-0.94532 0.51563,-0.47656 0.51953,-0.47656 0.51562,-0.48047 0.51953,-0.47656 0.51563,-0.48047 0.51953,-0.48438 0.51953,-0.48047 0.51563,-0.48437 0.51953,-0.48438 0.51562,-0.48828 0.51953,-0.48828 0.51563,-0.48828 0.51953,-0.48828 0.51953,-0.49219 0.51563,-0.49219 0.51953,-0.49218 0.51562,-0.4961 0.51953,-0.49609 0.51563,-0.49609 0.51953,-0.4961 0.51953,-0.5 0.51563,-0.5 0.51953,-0.5 0.51562,-0.5 0.51953,-0.5039 0.51563,-0.50391 0.51953,-0.50391 0.51953,-0.50781 0.51563,-0.50391 0.51953,-0.50781 0.51562,-0.50781 0.51953,-0.51172 0.51563,-0.50781 0.51953,-0.51172 0.51562,-0.51172 0.51954,-0.51172"
         style="fill:none;stroke:#636363;stroke-width:7.5;stroke-linecap:round;stroke-linejoin:round;stroke-miterlimit:10;stroke-opacity:1" />
      <path
         id="path993"
         d="m 382.06641,263.63281 c 0,5.39844 -8.10157,5.39844 -8.10157,0 0,-5.39844 8.10157,-5.39844 8.10157,0"
         style="fill:none;stroke:#ff68c2;stroke-width:3.75;stroke-linecap:round;stroke-linejoin:round;stroke-miterlimit:10;stroke-opacity:1" />
      <path
         id="path995"
         d="m 375.85156,290.41797 c 0,5.40234 -8.10156,5.40234 -8.10156,0 0,-5.39844 8.10156,-5.39844 8.10156,0"
         style="fill:none;stroke:#ff68c2;stroke-width:3.75;stroke-linecap:round;stroke-linejoin:round;stroke-miterlimit:10;stroke-opacity:1" />
      <path
         id="path997"
         d="m 121.58594,113.14844 c 0,5.39844 -8.09766,5.39844 -8.09766,0 0,-5.40235 8.09766,-5.40235 8.09766,0"
         style="fill:none;stroke:#ff68c2;stroke-width:3.75;stroke-linecap:round;stroke-linejoin:round;stroke-miterlimit:10;stroke-opacity:1" />
      <path
         id="path999"
         d="m 317.85156,264 c 0,5.39844 -8.09765,5.39844 -8.09765,0 0,-5.40234 8.09765,-5.40234 8.09765,0"
         style="fill:none;stroke:#ff68c2;stroke-width:3.75;stroke-linecap:round;stroke-linejoin:round;stroke-miterlimit:10;stroke-opacity:1" />
      <path
         id="path1001"
         d="m 275.90625,196.52344 c 0,5.40234 -8.10156,5.40234 -8.10156,0 0,-5.39844 8.10156,-5.39844 8.10156,0"
         style="fill:none;stroke:#ff68c2;stroke-width:3.75;stroke-linecap:round;stroke-linejoin:round;stroke-miterlimit:10;stroke-opacity:1" />
      <path
         id="path1003"
         d="m 254.15625,150.33594 c 0,5.40234 -8.10156,5.40234 -8.10156,0 0,-5.39844 8.10156,-5.39844 8.10156,0"
         style="fill:none;stroke:#ff68c2;stroke-width:3.75;stroke-linecap:round;stroke-linejoin:round;stroke-miterlimit:10;stroke-opacity:1" />
      <path
         id="path1005"
         d="m 571.08203,270.38672 c 0,5.40234 -8.10156,5.40234 -8.10156,0 0,-5.39844 8.10156,-5.39844 8.10156,0"
         style="fill:none;stroke:#ff68c2;stroke-width:3.75;stroke-linecap:round;stroke-linejoin:round;stroke-miterlimit:10;stroke-opacity:1" />
      <path
         id="path1007"
         d="m 228.26562,180.41797 c 0,5.39844 -8.10156,5.39844 -8.10156,0 0,-5.40235 8.10156,-5.40235 8.10156,0"
         style="fill:none;stroke:#ff68c2;stroke-width:3.75;stroke-linecap:round;stroke-linejoin:round;stroke-miterlimit:10;stroke-opacity:1" />
      <path
         id="path1009"
         d="m 209.62109,70.132812 c 0,5.402344 -8.10156,5.402344 -8.10156,0 0,-5.398437 8.10156,-5.398437 8.10156,0"
         style="fill:none;stroke:#ff68c2;stroke-width:3.75;stroke-linecap:round;stroke-linejoin:round;stroke-miterlimit:10;stroke-opacity:1" />
      <path
         id="path1011"
         d="m 158.35547,141.58984 c 0,5.39844 -8.10156,5.39844 -8.10156,0 0,-5.40234 8.10156,-5.40234 8.10156,0"
         style="fill:none;stroke:#ff68c2;stroke-width:3.75;stroke-linecap:round;stroke-linejoin:round;stroke-miterlimit:10;stroke-opacity:1" />
      <path
         id="path1013"
         d="m 585.58203,288.00781 c 0,5.40235 -8.10156,5.40235 -8.10156,0 0,-5.39844 8.10156,-5.39844 8.10156,0"
         style="fill:none;stroke:#ff68c2;stroke-width:3.75;stroke-linecap:round;stroke-linejoin:round;stroke-miterlimit:10;stroke-opacity:1" />
      <path
         id="path1015"
         d="m 592.3125,285.99219 c 0,5.40234 -8.09766,5.40234 -8.09766,0 0,-5.39844 8.09766,-5.39844 8.09766,0"
         style="fill:none;stroke:#ff68c2;stroke-width:3.75;stroke-linecap:round;stroke-linejoin:round;stroke-miterlimit:10;stroke-opacity:1" />
      <path
         id="path1017"
         d="m 506.86719,322.72656 c 0,5.39844 -8.09766,5.39844 -8.09766,0 0,-5.39844 8.09766,-5.39844 8.09766,0"
         style="fill:none;stroke:#ff68c2;stroke-width:3.75;stroke-linecap:round;stroke-linejoin:round;stroke-miterlimit:10;stroke-opacity:1" />
      <path
         id="path1019"
         d="m 182.69141,154.69141 c 0,5.40234 -8.09766,5.40234 -8.09766,0 0,-5.39844 8.09766,-5.39844 8.09766,0"
         style="fill:none;stroke:#ff68c2;stroke-width:3.75;stroke-linecap:round;stroke-linejoin:round;stroke-miterlimit:10;stroke-opacity:1" />
      <path
         id="path1021"
         d="m 584.54687,283.14062 c 0,5.40235 -8.10156,5.40235 -8.10156,0 0,-5.39843 8.10156,-5.39843 8.10156,0"
         style="fill:none;stroke:#ff68c2;stroke-width:3.75;stroke-linecap:round;stroke-linejoin:round;stroke-miterlimit:10;stroke-opacity:1" />
      <path
         id="path1023"
         d="m 96.210938,92.015625 c 0,5.402344 -8.097657,5.402344 -8.097657,0 0,-5.398437 8.097657,-5.398437 8.097657,0"
         style="fill:none;stroke:#ff68c2;stroke-width:3.75;stroke-linecap:round;stroke-linejoin:round;stroke-miterlimit:10;stroke-opacity:1" />
      <path
         id="path1025"
         d="m 578.84766,325.20703 c 0,5.40234 -8.09766,5.40234 -8.09766,0 0,-5.39844 8.09766,-5.39844 8.09766,0"
         style="fill:none;stroke:#ff68c2;stroke-width:3.75;stroke-linecap:round;stroke-linejoin:round;stroke-miterlimit:10;stroke-opacity:1" />
      <path
         id="path1027"
         d="m 553.99219,306.3125 c 0,5.40234 -8.10157,5.40234 -8.10157,0 0,-5.39844 8.10157,-5.39844 8.10157,0"
         style="fill:none;stroke:#ff68c2;stroke-width:3.75;stroke-linecap:round;stroke-linejoin:round;stroke-miterlimit:10;stroke-opacity:1" />
      <path
         id="path1029"
         d="m 256.22656,165.22656 c 0,5.40235 -8.09765,5.40235 -8.09765,0 0,-5.39844 8.09765,-5.39844 8.09765,0"
         style="fill:none;stroke:#ff68c2;stroke-width:3.75;stroke-linecap:round;stroke-linejoin:round;stroke-miterlimit:10;stroke-opacity:1" />
      <path
         id="path1031"
         d="m 208.58594,158.73828 c 0,5.39844 -8.10157,5.39844 -8.10157,0 0,-5.40234 8.10157,-5.40234 8.10157,0"
         style="fill:none;stroke:#ff68c2;stroke-width:3.75;stroke-linecap:round;stroke-linejoin:round;stroke-miterlimit:10;stroke-opacity:1" />
      <path
         id="path1033"
         d="m 514.63672,309.08984 c 0,5.39844 -8.10156,5.39844 -8.10156,0 0,-5.40234 8.10156,-5.40234 8.10156,0"
         style="fill:none;stroke:#ff68c2;stroke-width:3.75;stroke-linecap:round;stroke-linejoin:round;stroke-miterlimit:10;stroke-opacity:1" />
      <path
         id="path1037"
         d="m 107.08594,124.60547 c 0,5.39844 -8.097659,5.39844 -8.097659,0 0,-5.40234 8.097659,-5.40234 8.097659,0"
         style="fill:none;stroke:#ff68c2;stroke-width:3.75;stroke-linecap:round;stroke-linejoin:round;stroke-miterlimit:10;stroke-opacity:1" />
      <path
         id="path1039"
         d="m 161.46094,116.50391 c 0,5.40234 -8.10157,5.40234 -8.10157,0 0,-5.39844 8.10157,-5.39844 8.10157,0"
         style="fill:none;stroke:#ff68c2;stroke-width:3.75;stroke-linecap:round;stroke-linejoin:round;stroke-miterlimit:10;stroke-opacity:1" />
      <path
         id="path1041"
         d="m 368.08203,305.13281 c 0,5.39844 -8.09766,5.39844 -8.09766,0 0,-5.39844 8.09766,-5.39844 8.09766,0"
         style="fill:none;stroke:#ff68c2;stroke-width:3.75;stroke-linecap:round;stroke-linejoin:round;stroke-miterlimit:10;stroke-opacity:1" />
      <path
         id="path1043"
         d="m 592.83203,274.91406 c 0,5.39844 -8.10156,5.39844 -8.10156,0 0,-5.39844 8.10156,-5.39844 8.10156,0"
         style="fill:none;stroke:#ff68c2;stroke-width:3.75;stroke-linecap:round;stroke-linejoin:round;stroke-miterlimit:10;stroke-opacity:1" />
      <path
         id="path1045"
         d="m 553.47266,284.11719 c 0,5.39843 -8.09766,5.39843 -8.09766,0 0,-5.40235 8.09766,-5.40235 8.09766,0"
         style="fill:none;stroke:#ff68c2;stroke-width:3.75;stroke-linecap:round;stroke-linejoin:round;stroke-miterlimit:10;stroke-opacity:1" />
      <path
         id="path1047"
         d="m 536.38672,334.71484 c 0,5.39844 -8.10156,5.39844 -8.10156,0 0,-5.40234 8.10156,-5.40234 8.10156,0"
         style="fill:none;stroke:#ff68c2;stroke-width:3.75;stroke-linecap:round;stroke-linejoin:round;stroke-miterlimit:10;stroke-opacity:1" />
      <path
         id="path1051"
         d="m 584.02734,295.58984 c 0,5.39844 -8.10156,5.39844 -8.10156,0 0,-5.40234 8.10156,-5.40234 8.10156,0"
         style="fill:none;stroke:#ff68c2;stroke-width:3.75;stroke-linecap:round;stroke-linejoin:round;stroke-miterlimit:10;stroke-opacity:1" />
      <path
         id="path1053"
         d="m 534.83203,298.92187 c 0,5.40235 -8.10156,5.40235 -8.10156,0 0,-5.39843 8.10156,-5.39843 8.10156,0"
         style="fill:none;stroke:#ff68c2;stroke-width:3.75;stroke-linecap:round;stroke-linejoin:round;stroke-miterlimit:10;stroke-opacity:1" />
      <path
         id="path1055"
         d="m 134.53125,176.90625 c 0,5.40234 -8.09766,5.40234 -8.09766,0 0,-5.39844 8.09766,-5.39844 8.09766,0"
         style="fill:none;stroke:#ff68c2;stroke-width:3.75;stroke-linecap:round;stroke-linejoin:round;stroke-miterlimit:10;stroke-opacity:1" />
      <path
         id="path1057"
         d="m 454.04687,325.89062 c 0,5.40235 -8.10156,5.40235 -8.10156,0 0,-5.39843 8.10156,-5.39843 8.10156,0"
         style="fill:none;stroke:#ff68c2;stroke-width:3.75;stroke-linecap:round;stroke-linejoin:round;stroke-miterlimit:10;stroke-opacity:1" />
      <path
         id="path1059"
         d="m 198.22656,131.10937 c 0,5.40235 -8.09765,5.40235 -8.09765,0 0,-5.39843 8.09765,-5.39843 8.09765,0"
         style="fill:none;stroke:#ff68c2;stroke-width:3.75;stroke-linecap:round;stroke-linejoin:round;stroke-miterlimit:10;stroke-opacity:1" />
      <path
         id="path1061"
         d="m 477.86719,324.90625 c 0,5.39844 -8.09766,5.39844 -8.09766,0 0,-5.40234 8.09766,-5.40234 8.09766,0"
         style="fill:none;stroke:#ff68c2;stroke-width:3.75;stroke-linecap:round;stroke-linejoin:round;stroke-miterlimit:10;stroke-opacity:1" />
      <path
         id="path1063"
         d="m 404.33203,347.46484 c 0,5.40235 -8.09766,5.40235 -8.09766,0 0,-5.39843 8.09766,-5.39843 8.09766,0"
         style="fill:none;stroke:#ff68c2;stroke-width:3.75;stroke-linecap:round;stroke-linejoin:round;stroke-miterlimit:10;stroke-opacity:1" />
      <path
         id="path1065"
         d="m 566.9375,290.77344 c 0,5.39843 -8.09766,5.39843 -8.09766,0 0,-5.40235 8.09766,-5.40235 8.09766,0"
         style="fill:none;stroke:#ff68c2;stroke-width:3.75;stroke-linecap:round;stroke-linejoin:round;stroke-miterlimit:10;stroke-opacity:1" />
      <path
         id="path1067"
         d="m 455.60156,314.77734 c 0,5.39844 -8.10156,5.39844 -8.10156,0 0,-5.40234 8.10156,-5.40234 8.10156,0"
         style="fill:none;stroke:#ff68c2;stroke-width:3.75;stroke-linecap:round;stroke-linejoin:round;stroke-miterlimit:10;stroke-opacity:1" />
      <path
         id="path1069"
         d="m 229.30078,146.95703 c 0,5.40234 -8.10156,5.40234 -8.10156,0 0,-5.39844 8.10156,-5.39844 8.10156,0"
         style="fill:none;stroke:#ff68c2;stroke-width:3.75;stroke-linecap:round;stroke-linejoin:round;stroke-miterlimit:10;stroke-opacity:1" />
      <path
         id="path1071"
         d="m 190.46094,110.27734 c 0,5.40235 -8.10157,5.40235 -8.10157,0 0,-5.39843 8.10157,-5.39843 8.10157,0"
         style="fill:none;stroke:#ff68c2;stroke-width:3.75;stroke-linecap:round;stroke-linejoin:round;stroke-miterlimit:10;stroke-opacity:1" />
      <path
         id="path1073"
         d="m 447.31641,322.58594 c 0,5.40234 -8.10157,5.40234 -8.10157,0 0,-5.39844 8.10157,-5.39844 8.10157,0"
         style="fill:none;stroke:#ff68c2;stroke-width:3.75;stroke-linecap:round;stroke-linejoin:round;stroke-miterlimit:10;stroke-opacity:1" />
      <path
         id="path1075"
         d="m 495.99219,304.79297 c 0,5.40234 -8.09766,5.40234 -8.09766,0 0,-5.39844 8.09766,-5.39844 8.09766,0"
         style="fill:none;stroke:#ff68c2;stroke-width:3.75;stroke-linecap:round;stroke-linejoin:round;stroke-miterlimit:10;stroke-opacity:1" />
      <path
         id="path1077"
         d="m 355.65625,234.60937 c 0,5.39844 -8.10156,5.39844 -8.10156,0 0,-5.39843 8.10156,-5.39843 8.10156,0"
         style="fill:none;stroke:#ff68c2;stroke-width:3.75;stroke-linecap:round;stroke-linejoin:round;stroke-miterlimit:10;stroke-opacity:1" />
      <path
         id="path1079"
         d="m 410.03125,335.35547 c 0,5.40234 -8.10156,5.40234 -8.10156,0 0,-5.39844 8.10156,-5.39844 8.10156,0"
         style="fill:none;stroke:#ff68c2;stroke-width:3.75;stroke-linecap:round;stroke-linejoin:round;stroke-miterlimit:10;stroke-opacity:1" />
      <path
         id="path1081"
         d="m 189.94141,162.65625 c 0,5.39844 -8.09766,5.39844 -8.09766,0 0,-5.39844 8.09766,-5.39844 8.09766,0"
         style="fill:none;stroke:#ff68c2;stroke-width:3.75;stroke-linecap:round;stroke-linejoin:round;stroke-miterlimit:10;stroke-opacity:1" />
      <path
         id="path1083"
         d="m 128.83594,113.45313 c 0,5.39843 -8.09766,5.39843 -8.09766,0 0,-5.40235 8.09766,-5.40235 8.09766,0"
         style="fill:none;stroke:#ff68c2;stroke-width:3.75;stroke-linecap:round;stroke-linejoin:round;stroke-miterlimit:10;stroke-opacity:1" />
      <path
         id="path1085"
         d="m 236.03125,166.94531 c 0,5.40235 -8.10156,5.40235 -8.10156,0 0,-5.39844 8.10156,-5.39844 8.10156,0"
         style="fill:none;stroke:#ff68c2;stroke-width:3.75;stroke-linecap:round;stroke-linejoin:round;stroke-miterlimit:10;stroke-opacity:1" />
      <path
         id="path1087"
         d="m 295.06641,237.91016 c 0,5.39843 -8.10157,5.39843 -8.10157,0 0,-5.40235 8.10157,-5.40235 8.10157,0"
         style="fill:none;stroke:#ff68c2;stroke-width:3.75;stroke-linecap:round;stroke-linejoin:round;stroke-miterlimit:10;stroke-opacity:1" />
      <path
         id="path1089"
         d="m 108.64063,129.55859 c 0,5.39844 -8.10157,5.39844 -8.10157,0 0,-5.40234 8.10157,-5.40234 8.10157,0"
         style="fill:none;stroke:#ff68c2;stroke-width:3.75;stroke-linecap:round;stroke-linejoin:round;stroke-miterlimit:10;stroke-opacity:1" />
      <path
         id="path1091"
         d="m 267.62109,189.60156 c 0,5.39844 -8.10156,5.39844 -8.10156,0 0,-5.39844 8.10156,-5.39844 8.10156,0"
         style="fill:none;stroke:#ff68c2;stroke-width:3.75;stroke-linecap:round;stroke-linejoin:round;stroke-miterlimit:10;stroke-opacity:1" />
    </g>
    <text
       xml:space="preserve"
       style="font-style:normal;font-variant:normal;font-weight:normal;font-stretch:normal;font-size:194.028px;line-height:1.25;font-family:'League Spartan';-inkscape-font-specification:'League Spartan';letter-spacing:0px;word-spacing:0px;fill:#646464;fill-opacity:1;stroke:none;stroke-width:0.264583"
       x="-292.57462"
       y="566.00598"
       id="text60"><tspan
         id="tspan58"
         x="-292.57462"
         y="566.00598"
         style="fill:#646464;fill-opacity:1;stroke-width:0.264583">LIESEL</tspan></text>
    <path
       style="fill:#646464;fill-opacity:1;stroke-width:0.579355"
       d="m -276.68944,395.07992 c -1.01902,-1.01904 -0.85274,-3.33279 0.42905,-5.96738 2.48926,-5.11684 3.57405,-20.00756 1.89599,-26.02509 -0.58505,-2.09822 -6.55422,7.20087 -7.96623,12.41028 -0.041,0.15943 -0.27439,0.73341 -0.51457,1.27576 -0.2395,0.54264 -0.25114,1.28439 -0.0273,1.64897 0.26413,0.42698 0.0273,0.58848 -0.67264,0.45368 -0.98707,-0.19023 -1.06885,-0.74443 -0.92781,-6.28373 0.0849,-3.34119 0.24975,-15.85157 0.3654,-27.80072 0.16491,-16.99158 0.42767,-23.05148 1.20583,-27.80906 0.54743,-3.34578 1.21104,-7.90821 1.47545,-10.13875 1.5813,-13.34329 6.08699,-21.72405 10.52857,-19.58343 l 1.56372,0.7536 0.96436,-3.33092 c 0.5303,-1.83196 1.30697,-4.37371 1.72574,-5.64831 0.41878,-1.2746 1.3186,-4.66384 1.99973,-7.53165 2.79699,-11.77621 10.76172,-31.08758 15.65725,-37.96266 0.63159,-0.88682 1.14808,-1.92295 1.14808,-2.30251 0,-0.37978 0.53921,-1.44739 1.19811,-2.37282 0.65894,-0.92549 0.98488,-1.69099 0.72423,-1.70112 -0.26071,-0.007 0.002,-0.37908 0.58438,-0.82029 0.58164,-0.44069 1.11134,-1.16533 1.17647,-1.60951 0.11565,-0.78712 2.92618,-4.33147 7.61459,-9.6024 2.41817,-2.71863 13.79012,-12.41854 16.80129,-14.33097 0.95593,-0.60695 2.91126,-2.05769 4.34516,-3.22349 1.4339,-1.16575 3.91065,-2.83005 5.50385,-3.69846 1.59327,-0.86842 3.15753,-1.78556 3.47614,-2.03812 7.58228,-6.00968 27.79627,-3.6136 31.7234,3.7603 0.53442,1.00281 0.49885,1.06502 -0.25181,0.44615 -0.47968,-0.39552 -1.00165,-0.58986 -1.15957,-0.43178 -0.15808,0.15808 -1.05181,0.0205 -1.98626,-0.30518 -5.23945,-1.82647 -22.17444,5.03915 -31.29184,12.68603 -0.99405,0.83372 -3.24908,2.5319 -5.01117,3.77366 -5.15152,3.6303 -10.81549,9.87148 -20.14953,22.20298 -1.25913,1.66348 -2.28938,3.15445 -2.28938,3.31321 0,0.15876 -1.21946,2.17382 -2.70996,4.47784 -6.48832,10.02995 -10.51352,21.41798 -11.74029,33.21535 -0.63638,6.11725 -1.92857,9.10637 -5.29467,12.24482 -1.3208,1.2315 -3.44746,3.22761 -4.72583,4.43583 -2.75977,2.60819 -3.56503,2.52012 -3.8113,-0.41673 -0.16764,-2.00233 -0.25044,-2.09587 -0.97974,-1.11393 -0.76448,1.02888 -0.61791,3.28946 0.29424,4.54819 0.37292,0.51389 0.38729,1.68907 0.0821,6.51775 -0.10196,1.6108 -0.65826,1.64316 -2.27932,0.13276 -1.65466,-1.54155 -7.07544,3.00275 -6.54178,5.484 0.041,0.18339 -0.31477,1.08109 -0.78711,1.99454 -2.19093,4.23677 -3.08672,10.04199 -3.45199,22.37029 -0.19844,6.69155 -0.50225,14.90391 -0.67607,18.2497 -0.24427,4.70865 -0.16558,5.84428 0.34898,5.02588 0.3661,-0.58164 0.52006,-1.20241 0.34283,-1.37971 -0.17722,-0.17723 -0.0767,-0.78166 0.22376,-1.34297 0.3004,-0.5611 0.69112,-3.46005 0.86828,-6.44158 0.17723,-2.98155 0.44342,-6.20312 0.59122,-7.15907 0.1478,-0.95594 0.39962,-4.60587 0.55974,-8.11095 0.83734,-18.36268 4.21186,-21.69156 14.25269,-14.06008 5.19107,3.94548 19.29562,11.49247 24.65257,13.19097 1.22649,0.38868 3.79417,1.35919 5.70605,2.1563 3.75984,1.56748 4.07344,1.68948 9.26971,3.60512 3.32245,1.22486 8.68917,3.27995 13.03549,4.99181 2.31869,0.91324 7.82405,2.29103 11.44223,2.86356 1.6435,0.26004 2.46231,0.68155 2.46231,1.26845 0,1.58041 -17.88367,-1.08581 -27.22976,-4.05954 -1.4339,-0.45641 -4.82313,-1.42714 -7.53157,-2.15747 -6.03218,-1.62667 -12.89899,-4.58014 -20.73287,-8.91737 -8.79523,-4.86946 -13.28198,-6.45459 -14.6825,-5.18711 -2.30916,2.08972 -3.98064,6.84689 -3.98407,11.33884 -0.002,2.3299 -0.23881,5.14865 -0.52621,6.26394 -1.422,5.5116 -1.37506,6.24425 0.42494,6.63956 5.72967,1.25845 8.62868,12.77239 5.32567,21.15213 -0.63364,1.6073 -1.11818,3.50714 -1.07691,4.2218 0.041,0.71465 -0.10471,1.95122 -0.32367,2.74778 -0.39278,1.42823 -0.35583,1.44574 2.67026,1.25839 2.25784,-0.13959 4.47928,0.27851 8.40594,1.58308 9.86764,3.27837 37.49201,6.04149 38.32937,3.83387 1.39265,-3.6717 -25.62416,-11.7366 -33.84365,-10.10282 -5.5213,1.09745 -6.87939,-0.13549 -7.58481,-6.88472 -0.95505,-9.13717 4.59356,-10.89707 15.99733,-5.07407 0.80443,0.41057 2.86685,1.36842 4.58316,2.12817 1.71631,0.75977 5.36625,2.52519 8.11095,3.92318 2.74478,1.39804 7.07611,3.57939 9.62527,4.8475 2.5492,1.26809 5.93844,3.15909 7.53164,4.20222 12.87291,8.42831 27.19978,10.29969 44.45147,5.80617 2.8132,-0.73273 9.76054,-2.02971 15.80148,-2.95 1.2746,-0.19433 3.8817,-0.97271 5.79358,-1.7302 1.91187,-0.75743 6.86536,-2.18195 11.00778,-3.1656 4.14234,-0.98359 8.05299,-1.99112 8.69033,-2.23889 3.9656,-1.54196 27.336998,-9.45673 36.789068,-12.45879 2.389837,-0.75907 6.300489,-1.82846 8.690326,-2.37657 2.389847,-0.5481 5.648715,-1.35254 7.24192,-1.78774 1.593275,-0.4352 5.503927,-1.3026 8.690336,-1.92748 3.186479,-0.62475 6.458146,-1.38915 7.270458,-1.69817 0.812302,-0.30929 3.28905,-0.74634 5.503926,-0.97174 2.214797,-0.22513 5.591234,-0.72678 7.503109,-1.11435 7.235828,-1.46676 44.81091581,-0.38525 55.618062,1.60087 6.371036,1.17086 9.727356,1.60367 10.408548,1.34227 1.453478,-0.55767 5.461779,-7.39013 5.84853,-9.96897 0.6658,-4.44131 -1.577672,-12.42403 -3.492005,-12.42403 -0.410574,0 -1.051531,-0.36746 -1.424464,-0.81703 -0.372933,-0.44957 -2.686131,-1.24018 -5.140294,-1.75729 -7.1125941,-1.49871 -9.3867243,-2.17156 -9.3867243,-2.77714 0,-0.31136 -0.3667719,-0.42562 -0.8145708,-0.25319 -1.72267,0.66102 -3.4378811,-5.2402 -3.302324,-11.36162 0.071815,-3.2356 0.1313769,-3.22506 5.9396698,1.05092 4.2664783,3.14083 12.6554483,7.22529 14.8398053,7.22529 9.116165,0 11.188767,24.86811 2.897505,34.76489 -3.591704,4.28721 -4.290767,4.41415 -14.780402,2.68361 -2.6288667,-0.43384 -4.7796833,-0.66239 -4.7796833,-0.50843 0,0.15396 -0.3257234,0.0136 -0.7242424,-0.31955 -1.7852828,-1.47913 -23.7805823,-2.08261 -35.7751543,-0.98153 -14.922536,1.36986 -26.740155,3.03019 -31.220127,4.38636 -2.035458,0.61585 -4.512196,1.25161 -5.503858,1.41194 -0.991721,0.16012 -2.71563,0.65074 -3.830932,1.08965 -1.115234,0.43861 -5.286589,1.76242 -9.26964,2.94116 -3.983112,1.17873 -9.458025,3.01226 -12.166463,4.07446 -2.708518,1.0622 -5.576326,2.11422 -6.372958,2.33777 -0.796572,0.22376 -3.273311,1.25476 -5.503861,2.29151 -2.23054,1.03676 -5.48941,2.3492 -7.24193,2.9166 -1.75257,0.56726 -3.70071,1.38115 -4.32928,1.80834 -0.62818,0.427 -1.59622,0.77674 -2.15049,0.77674 -0.55428,0 -3.03813,0.66989 -5.5198,1.48871 -2.48168,0.8188 -5.29419,1.70372 -6.25013,1.96654 -31.60237,8.68779 -36.46135,9.49484 -56.77689,9.43017 -8.60343,-0.0273 -17.98898,-0.34419 -20.85679,-0.70405 -30.06958,-3.77318 -52.22938,-3.44917 -63.37573,0.92672 -5.44118,2.13611 -6.4357,2.30363 -7.47943,1.2599 z m 98.32449,-23.07551 c -8.5062,-2.33474 -3.34797,-10.34944 18.40824,-28.60194 4.74993,-3.98496 15.94519,-7.86715 18.65137,-6.46773 2.56597,1.32696 2.59205,1.77194 0.20871,3.56175 -1.1918,0.89483 -2.29727,1.79171 -2.45664,1.99289 -0.15942,0.20118 -1.5932,1.07151 -3.1864,1.93391 -6.5718,3.55729 -17.84304,14.42616 -22.65557,21.84667 -3.44355,5.3098 -5.56796,6.66801 -8.96937,5.73446 z m 69.24888,-38.00064 c 0.20939,-0.83508 0.75928,-1.89654 1.22151,-2.35876 0.46189,-0.46257 0.84044,-1.12351 0.84044,-1.46955 0,-0.91113 13.045624,-14.02196 16.801284,-16.88525 9.305569,-7.09453 19.461694,-11.32796 36.789124,-15.33488 6.592603,-1.52458 16.745103,-2.2783 17.35678,-1.28857 0.646642,1.0466 0.180647,1.24936 -4.128109,1.79513 -3.712007,0.47011 -10.409787,1.93856 -12.35964,2.70968 -1.007392,0.39825 -1.496586,0.52963 -3.476136,0.93246 -0.796632,0.16218 -4.185867,1.25106 -7.531646,2.41996 -3.34578,1.16881 -6.995719,2.3919 -8.110953,2.71788 -1.115302,0.32572 -3.98311,1.52751 -6.372957,2.67019 -3.827307,1.8299 -5.728643,3.05489 -10.075376,6.4914 -0.604901,0.47831 -5.298228,4.97416 -10.430321,9.99148 -9.37345,9.16386 -11.25591,10.52482 -10.524,7.60883 z m 31.464213,-9.53574 c -1.450189,-0.84468 -1.319902,-2.85037 0.185441,-2.85037 3.629612,0 16.763993,-6.57988 23.009744,-11.52708 2.64015,-2.09121 6.029385,-4.27563 7.531578,-4.85426 1.502262,-0.5789 3.774203,-1.53223 5.048807,-2.11907 7.304533,-3.36337 28.75802,-2.88923 33.9542905,0.75037 3.6461152,2.5538 6.3082946,7.92094 4.7682627,9.61302 -1.6898926,1.85679 -9.5991292,0.24907 -14.0999612,-2.86576 -3.636329,-2.5167 -14.578894,-2.6992 -19.953484,-0.33256 -0.974822,0.42905 -2.945547,1.21699 -4.379451,1.75066 -1.433904,0.53374 -3.579183,1.60504 -4.767302,2.38081 -1.188039,0.77576 -2.306977,1.4105 -2.486385,1.4105 -0.17929,0 -2.066521,0.81368 -4.193466,1.80808 -9.412795,4.40086 -22.540053,8.046 -24.617728,6.83586 z m -50.132693,-2.65212 c -6.17465,-3.05326 -6.34079,-13.81429 -0.39689,-25.68986 3.05285,-6.09918 21.74891,-20.42825 23.87715,-18.29995 0.99474,0.99475 0.37704,2.29795 -2.28767,4.82369 -8.3608,7.92594 -8.92225,8.55492 -12.80402,14.34528 -5.39807,8.0521 -5.7983,9.28299 -2.73233,8.40368 2.53622,-0.72738 4.39286,-0.2176 5.8215,1.59875 l 1.15759,1.47161 -1.89094,1.11729 c -4.97921,2.94206 -6.0525,5.9203 -3.62578,10.06129 0.79836,1.36233 1.25463,2.58781 1.0139,2.72329 -1.15246,0.64869 -6.4264,0.28877 -8.13265,-0.55495 z m 24.60775,-4.27867 c -3.30581,-0.55563 -3.74164,-0.8819 -7.13798,-5.34777 -5.34587,-7.02939 -5.68608,-8.76156 -3.0859,-15.71131 2.94328,-7.86652 6.91868,-10.27024 6.93277,-4.19189 0.0136,5.86605 2.69756,12.55589 7.308441,18.21617 2.193312,2.69257 2.439038,3.26313 1.875058,4.35496 -0.80848,1.56528 -2.304175,3.30657 -2.762439,3.21596 -0.18954,-0.0342 -1.59806,-0.27849 -3.12995,-0.53647 z m -154.19793,-5.15337 c -0.19091,-0.3093 -1.66764,-1.28084 -3.28104,-2.15896 -3.25196,-1.76996 -3.60861,-4.07359 -1.18661,-7.66501 0.55974,-0.83016 1.52841,-2.5154 2.15233,-3.74498 1.57583,-3.10541 10.19266,-11.50497 13.79388,-13.446 1.64076,-0.8843 3.11354,-1.78159 3.27283,-1.99398 0.15944,-0.21213 0.81108,-0.52897 1.44843,-0.70283 14.80503,-4.04737 18.5106,-4.36945 24.24883,-2.10765 7.12224,2.80733 9.35504,10.16872 2.56125,8.44421 -2.4294,-0.61654 -9.1581,0.10948 -15.59628,1.68324 -1.79856,0.43932 -3.85687,0.79925 -4.57405,0.79925 -3.53874,0 -16.19913,8.44268 -16.19913,10.80249 0,0.35377 -0.43587,1.00055 -0.96797,1.43787 -1.58212,1.29958 -4.24623,5.84661 -4.24623,7.24727 0,1.42931 -0.87717,2.29349 -1.42624,1.40508 z m 82.18818,0.14644 c -2.94096,-2.17812 -2.13892,-4.22221 1.68558,-4.29563 3.51226,-0.0684 6.37843,-0.77597 5.03511,-1.24477 -5.72466,-1.99767 -9.85524,-1.51205 -16.35813,1.92338 -9.02864,4.76968 -18.34961,4.3663 -34.29548,-1.484 -12.0457,-4.41941 -11.98158,-4.56818 2.15219,-4.99181 6.44179,-0.19297 13.40699,-0.65007 15.47817,-1.01513 20.95164,-3.69449 34.18065,-2.65794 41.17342,3.22609 5.42393,4.56393 -9.01652,12.21765 -14.87086,7.88187 z m 152.441994,-19.59082 c -0.485153,-0.79664 -1.27604,-2.09499 -1.757221,-2.88526 -4.345376,-7.13702 -4.937954,-42.0686 -0.806429,-47.53414 0.247035,-0.32709 0.849875,-3.0646 1.339,-6.08323 0.517999,-3.19901 1.741966,-7.53349 2.933224,-10.39111 1.124139,-2.69646 2.043877,-5.22317 2.043877,-5.61497 0,-0.3921 1.102781,-3.00878 2.450607,-5.81541 1.347884,-2.80671 2.478383,-5.23343 2.512319,-5.39274 0.130704,-0.61379 1.014791,-2.80101 3.198732,-7.9136 1.2466896,-2.91858 2.2667409,-5.59603 2.2667409,-5.94986 0,-2.13133 8.64913871,-12.15867 11.622946,-13.47502 2.0027388,-0.88649 1.9440981,-0.3873 0.7511262,-6.39725 -1.174221,-5.91544 -3.53518323,-10.75658 -6.8742567,-14.09565 -3.4833873,-3.48339 -2.5766453,-4.63612 3.22281227,-4.09711 7.90197463,0.73442 14.92205033,5.40785 18.82510533,12.53228 1.964701,3.5863 8.258901,13.35923 9.514753,14.77356 0.565903,0.63706 1.694211,2.37178 2.507405,3.85433 6.003105,10.9449 25.712022,30.61734 30.674135,30.61734 0.750384,0 1.670052,0.30588 2.043808,0.6795 0.52005,0.52005 1.033869,0.518 2.187021,-0.007 0.829132,-0.37772 1.731079,-0.54879 2.004314,-0.37978 1.832294,1.13242 9.638127,-4.68272 14.001976,-10.43107 0.725748,-0.95594 1.61257,-1.99878 1.970784,-2.31737 0.358569,-0.31888 1.405781,-1.62222 2.327778,-2.89683 0.921997,-1.27453 1.821616,-2.44773 1.999193,-2.60711 0.17723,-0.15942 1.154499,-1.46284 2.170994,-2.89675 1.016564,-1.4339 3.691889,-4.30171 5.945217,-6.37289 2.253325,-2.07122 5.867475,-5.46047 8.031365,-7.53164 2.16396,-2.07116 5.21078,-4.73876 6.7708,-5.92796 1.56002,-1.18914 4.09486,-3.17635 5.63305,-4.416 1.53812,-1.23963 3.49345,-2.61264 4.34516,-3.05113 0.85166,-0.43861 1.67887,-0.94211 1.83817,-1.1192 0.81122,-0.90146 5.47596,-2.8899 6.16201,-2.6266 1.44252,0.55358 0.82127,2.10176 -1.96169,4.88868 -2.81375,2.8178 -8.11219,8.96412 -7.78388,9.02947 0.1006,0.0205 0.003,0.50364 -0.21622,1.07514 -0.46874,1.22205 -0.69208,1.03175 2.88285,2.45881 2.99058,1.19379 3.98661,2.35495 2.30035,2.68176 -1.46717,0.28466 1.04113,2.93036 4.45991,4.70482 l 2.65672,1.37889 0.11359,-3.23479 c 0.42903,-12.18789 6.63564,-22.27291 17.45736,-28.3649 8.80543,-4.95691 17.95089,-5.18587 16.43556,-0.41126 -0.70023,2.20606 -1.77755,2.57768 -10.17133,3.50831 -4.87609,0.54057 -10.49067,9.46172 -7.56778,12.02447 4.33642,3.80219 15.78747,2.86275 15.78747,-1.29514 0,-0.50636 0.23607,-1.16819 0.52484,-1.47092 0.28877,-0.30245 1.35556,-2.76641 2.37049,-5.47491 1.01498,-2.70851 2.21253,-5.78064 2.66134,-6.82711 0.4489,-1.0464 0.81595,-2.65883 0.81595,-3.58322 0,-0.92439 0.23676,-2.30322 0.5262,-3.06412 0.28946,-0.76086 0.70317,-3.31637 0.91968,-5.67884 0.21622,-2.36254 0.51731,-4.49557 0.66853,-4.74013 0.15123,-0.24429 0.37636,-3.59512 0.50021,-7.44576 0.26961,-8.36921 0.36267,-8.52926 10.02447,-17.32668 6.26313,-5.7027 22.65954,-21.482846 32.80792,-31.574845 8.81343,-8.764508 15.99638,-20.577611 17.14836,-28.202251 0.3045,-2.014239 0.69727,-4.51795 0.87321,-5.563736 0.2997,-1.780013 0.22991,-1.87882 -1.08746,-1.548174 -1.99789,0.501576 -1.61442,-2.251476 1.05283,-7.558194 2.93753,-5.844488 2.72226,-6.690737 -1.97031,-7.745071 -5.59199,-1.256407 -3.78241,-5.17848 2.23649,-4.847359 1.30226,0.07182 4.18068,-1.547906 6.26231,-3.523485 2.31375,-2.195916 3.05434,-1.688119 4.43502,3.0408 1.68887,5.784678 0.87012,10.430379 -2.3555,13.365585 -1.06699,0.970999 -1.95505,2.215351 -1.97345,2.765237 -0.22514,6.730428 -1.6652,14.478649 -3.39745,18.281113 -0.66237,1.453606 -1.20399,2.779808 -1.20399,2.947181 0,0.523478 -6.38835,14.536538 -7.9461,17.429595 -1.67792,3.116334 -8.11404,10.296533 -15.06007,16.801364 -13.20637,12.36742 -20.47963,19.73635 -22.87344,23.17417 -1.33119,1.91186 -3.0187,4.20659 -3.74991,5.09936 -2.64843,3.23378 -8.88536,18.58411 -8.88536,21.86885 0,0.66375 -0.23265,1.64583 -0.51662,2.18251 -0.28399,0.53647 -0.68292,2.54004 -0.8867,4.45191 -0.20391,1.91187 -0.61174,4.64934 -0.9066,6.08324 -0.29491,1.4339 -0.54811,5.07741 -0.56179,8.09664 -0.0273,5.92079 -2.14103,13.10948 -4.05202,13.77999 -0.49405,0.17313 -1.30321,0.66102 -1.79876,1.08363 -2.06318,1.76004 -10.72996,1.24252 -16.87054,-1.00746 -4.3845,-1.60655 -9.56586,-0.28945 -10.50578,2.66978 -0.30383,0.95594 -0.88847,2.12913 -1.2998,2.6071 -0.41125,0.47831 -0.83352,1.24724 -0.93829,1.7094 -0.70404,3.10641 -7.05777,6.67582 -8.30145,4.66356 -0.19707,-0.31888 -0.76105,-0.57958 -1.25359,-0.57958 -0.49268,0 -2.17498,-0.64254 -3.73869,-1.42809 -6.63853,-3.33428 -13.42123,-4.25306 -14.05091,-1.90318 -0.54399,2.03115 -0.4263,4.38375 0.24087,4.79597 1.09922,0.67948 0.49063,6.19853 -0.96654,8.76917 -2.43322,4.29165 -10.41136,5.3093 -14.383802,1.83469 -1.119542,-0.97935 -1.984404,-0.42426 -2.635088,1.69112 -0.367455,1.19494 -0.821545,2.56365 -1.008759,3.04161 -0.187492,0.47831 -0.366089,0.99938 -0.397568,1.15875 -0.03417,0.15943 -0.966611,2.10102 -2.077803,4.31493 -10.530416,20.98045 -35.412077,18.56987 -53.507612,-5.18395 -4.56714,-5.99523 -11.010576,-12.72334 -16.21691,-16.93315 -2.274745,-1.83941 -4.396627,-3.63023 -4.715219,-3.97963 -4.064069,-4.45672 -5.4940699,-3.94317 -11.6978709,4.20127 -14.1363051,18.55817 -25.3887741,45.06519 -25.1707641,59.29414 0.03417,2.07117 -0.280554,5.37849 -0.694615,7.34962 -0.726907,3.46312 -0.77063,10.11589 -0.106058,16.11427 0.176536,1.59321 0.462568,4.20032 0.635687,5.79352 0.173128,1.59327 0.433833,3.48338 0.580275,4.20037 0.355133,1.74155 -0.672644,1.65752 -1.770781,-0.14507 z m -170.923254,-8.41204 c -3.82375,-1.26202 -7.41497,-2.29719 -7.9806,-2.30033 -0.56521,-0.003 -2.52088,-0.55427 -4.34517,-1.22445 -5.14234,-1.8895 -9.40718,-2.85837 -12.72272,-2.89033 -5.64679,-0.0548 -4.55516,-2.21699 1.88458,-3.73349 5.05114,-1.18955 16.30642,-0.91364 21.71557,0.53236 1.7525,0.46874 4.3596,1.15816 5.7935,1.53259 5.95931,1.55612 8.11104,3.43692 8.11104,7.0898 0,4.07023 -2.52492,4.27168 -12.4562,0.99392 z m 100.228565,-10.95521 c -5.886438,-2.09897 -11.407265,-5.94741 -18.394575,-12.82249 l -6.8074,-6.69805 v 2.13563 c 0,2.75067 0.61175,5.80514 1.10155,5.50228 0.20938,-0.12933 0.35172,0.4612 0.31613,1.31293 -0.27986,6.6572 -5.36248,-2.77352 -8.37632,-15.54243 -2.30977,-9.7862 -6.1986,-16.82606 -12.96131,-23.4639 -2.27249,-2.23053 -5.93873,-6.04149 -8.14716,-8.46876 -2.20844,-2.42727 -6.56011,-6.59864 -9.67042,-9.26971 -7.31713,-6.28372 -7.59036,-8.87291 -0.82285,-7.79735 7.08002,1.12516 28.13205,20.90942 28.13205,26.43777 0,0.23539 0.99433,2.08411 2.20959,4.10821 1.21529,2.02409 2.56434,4.59267 2.9979,5.70789 0.43383,1.11524 1.26427,2.71973 1.84597,3.56558 0.58163,0.84576 1.05756,1.72204 1.05756,1.94725 0,5.90793 23.158852,28.06771 33.168069,31.73723 1.433221,0.52552 1.258934,1.94533 -0.289449,2.36028 -1.762292,0.47215 -2.029642,0.43451 -5.358999,-0.75236 z m -93.279985,-90.42656 c -4.55689,-0.3045 -8.6111,-1.86951 -6.6141,-2.55318 0.45298,-0.15533 3.69209,-1.21403 7.19716,-2.35309 9.92204,-3.22412 32.65931,-15.99363 45.84685,-25.74802 0.68017,-0.50295 1.84186,-1.30567 2.58178,-1.78364 0.73984,-0.4783 2.6537,-2.10736 4.25292,-3.62093 1.5993,-1.51355 3.10313,-2.75196 3.34182,-2.75196 3.14048,0 48.123719,-44.6772 47.540502,-47.216963 -0.07667,-0.333935 1.469762,-2.295823 3.436722,-4.359471 3.847494,-4.036618 12.51791,-14.952091 13.850065,-17.436357 0.447521,-0.834828 1.404683,-2.268732 2.126597,-3.186479 1.909002,-2.426725 5.067627,-7.779493 8.613974,-14.597912 l 3.10881,-5.977173 -1.408794,-1.847004 c -4.306506,-5.64612 -8.26526,-14.666815 -10.693827,-24.367555 -1.845162,-7.370503 -2.474015,-6.378633 -2.527663,3.986876 -0.01367,2.10429 0.841593,6.93365 1.414955,8.015769 1.428228,2.695373 -1.736766,1.345775 -3.495838,-1.490692 -2.156235,-3.47682 -4.820266,-5.492505 -8.661868,-6.553882 -9.091043,-2.511715 -12.850676,-9.807422 -9.682057,-18.788227 0.475574,-1.3481625 0.701044,-3.1035402 0.500893,-3.9008658 -0.212811,-0.8487054 -0.08687,-1.6209897 0.304506,-1.8628133 0.75694,-0.4680461 1.936916,-4.09855013 1.330916,-4.09519702 -0.216921,0.001185 -0.895381,1.23957252 -1.508008,2.75188882 -0.612428,1.5123955 -1.601009,3.9042234 -2.196263,5.3152752 l -1.082257,2.5654911 -1.762293,-1.9294573 C -93.001173,7.0637436 -93.276111,6.390891 -95.244923,-1.2616645 -99.716545,-18.642332 -96.4563,-31.027082 -83.991414,-44.010439 c 4.756614,-4.954517 4.819434,-5.058938 5.364328,-8.906496 1.899344,-13.411716 11.149631,-28.354846 16.359452,-26.427645 2.644319,0.978243 2.82565,9.304472 0.264814,12.147716 -3.202289,3.555032 -3.550923,5.960543 -1.825866,12.597699 2.238757,8.613899 0.192286,13.519968 -5.653985,13.555687 -2.830653,0.02052 -5.982987,3.603956 -9.043894,10.289833 -2.992489,6.536431 -2.385805,8.861881 1.726365,6.617449 1.0453,-0.570687 3.725547,-1.788223 5.956025,-2.706046 2.230536,-0.917822 5.823408,-2.797467 7.984229,-4.176902 2.160811,-1.379436 4.181282,-2.508085 4.490027,-2.508085 0.308607,0 0.561109,-0.228549 0.561109,-0.508418 0,-0.736899 11.519819,-6.44378 13.007163,-6.44378 6.267097,0 3.373902,8.792085 -6.257241,19.014996 -6.46082,6.857767 -7.185538,7.913061 -7.925857,11.5402147 -0.374301,1.835371 -1.30848,4.1700599 -2.075277,5.1881974 -1.205017,1.6000476 -1.273098,1.9189896 -0.501577,2.3507001 1.648013,0.922271 1.64829,4.1951715 6.15e-4,8.8377924 -0.84727,2.387588 -1.635016,4.7803664 -1.750594,5.3173254 -0.115637,0.537157 -0.52005,1.555296 -0.898659,2.263046 -0.588477,1.099564 -0.509105,1.422127 0.545369,2.217402 0.793214,0.598056 1.316899,1.755517 1.466612,3.240811 0.453682,4.502754 3.081579,13.028242 4.015551,13.028242 0.27782,0 0.327091,-1.188999 0.109486,-2.6422 -0.640481,-4.271332 -0.373616,-13.01689 0.511155,-16.750997 0.450939,-1.903456 0.682906,-3.6825076 0.515949,-3.9534137 -0.167651,-0.2709756 0.24428,-0.1498608 0.914944,0.2689151 0.670594,0.4187855 1.232594,1.1550636 1.248809,1.6360456 0.264815,7.864473 2.076238,11.120201 8.717705,15.668195 10.411768,7.129829 14.396325,17.247294 11.782376,29.917591 -0.26002,1.260716 -0.08618,2.257648 0.55359,3.17054 1.170249,1.670666 1.177638,2.232389 0.02734,2.232389 -0.496792,0 -0.745114,0.255919 -0.551529,0.568637 0.806418,1.304845 -2.401754,13.753921 -4.034026,15.653474 -0.410565,0.478309 -0.940065,1.520806 -1.17634,2.317448 -1.138572,3.838322 -6.641468,13.64888 -10.563621,18.832832 -0.242913,0.320935 -2.005482,2.924874 -3.917347,5.787014 -7.360232,11.01832 -23.327662,28.25788 -24.936191,26.92293 -0.967434,-0.80287 0.136171,-2.92789 4.277692,-8.23543 1.554136,-1.99179 3.503435,-4.66437 4.331755,-5.93891 0.828251,-1.27461 4.000356,-5.96739 7.049159,-10.4284 13.128011,-19.209407 13.763024,-20.251696 16.06076,-26.360731 5.183888,-13.782797 6.102537,-16.91638 5.855989,-19.975582 -0.510472,-6.333812 -7.758761,-13.629113 -8.066209,-8.11855 -0.05478,0.953406 -0.626792,3.297737 -1.27494,5.209613 -0.64801,1.911876 -1.713092,5.561815 -2.366856,8.110962 -1.381901,5.388349 -3.404282,11.295102 -4.196397,12.256513 -0.303139,0.368139 -1.949853,3.396556 -3.658972,6.729805 -8.841287,17.24285 -21.144406,32.51704 -37.352422,46.37251 -3.051414,2.60847 -6.069344,5.22762 -6.706684,5.8204 -0.63707,0.59259 -2.59259,2.14214 -4.34518,3.44308 -1.7525,1.30095 -5.15823,4.07495 -7.56818,6.16446 -2.40996,2.08958 -5.40813,4.52671 -6.66261,5.41586 -1.25443,0.88922 -5.61239,4.02773 -9.68432,6.9745 -4.07187,2.94671 -9.02535,6.19594 -11.00771,7.22037 -1.98235,1.0245 -4.25607,2.24745 -5.0527,2.71775 -0.79657,0.4701 -3.79475,1.93473 -6.66255,3.25443 -17.24203,7.93441 -19.93172,9.23172 -20.26804,9.77593 -0.16697,0.27029 -0.75402,0.42562 -1.30432,0.34419 -0.55015,-0.0807 -1.78774,0.0137 -2.74969,0.20391 -0.9619,0.19298 -3.83634,0.21077 -6.38754,0.0412 z M -69.064708,3.2334253 c 0.553581,-1.4495053 1.617969,-3.11647554 2.365341,-3.70433857 1.636998,-1.28767483 1.716103,-1.77111713 0.290133,-1.77111713 -3.102589,0 -3.62674,-3.7989752 -1.056454,-7.6572784 3.883481,-5.8294352 1.918919,-8.1131442 -4.626613,-5.3782222 -1.143911,0.478312 -2.569465,0.869034 -3.167798,0.869034 -0.598056,0 -1.088003,0.275764 -1.088003,0.613798 0,0.337349 -0.279871,0.440675 -0.621325,0.229918 -1.959768,-1.211173 -7.323006,7.4498733 -6.54149,10.5637496 0.199805,0.7957466 0.07528,1.3388587 -0.305872,1.3388587 -0.353093,0 -0.639115,0.3257166 -0.635014,0.72423964 0.004,0.39824969 1.036346,-0.38387974 2.29418,-1.73806634 3.831546,-4.1253078 8.150989,-1.6330299 8.941807,5.1595269 0.463251,3.9808526 2.759144,4.3958743 4.151307,0.7504426 z M 150.18341,140.28305 c -4.64535,-4.64529 -8.44249,-20.52233 -6.93344,-28.99081 0.36745,-2.06056 0.80463,-5.24971 0.97215,-7.087 0.44477,-4.879185 0.12249,-5.072288 16.78095,10.05923 3.09678,2.81293 8.29538,13.47056 8.29538,17.00629 0,2.94479 -2.6637,4.62572 -9.26971,5.84969 -2.29226,0.42493 -6.95228,2.56939 -6.95228,3.19962 0,1.01279 -1.86718,0.98892 -2.89305,-0.0342 z m 10.4158,-10.28724 c -0.0342,-1.82715 -4.63029,-3.78611 -6.90278,-2.9441 -1.29486,0.47967 -1.33291,0.59668 -0.47352,1.45561 1.24148,1.24147 7.39697,2.48357 7.37665,1.4885 z m -4.41598,-7.09712 c 0.49199,0 1.54387,-0.2963 2.33798,-0.6576 l 1.44375,-0.65759 -4.09862,-4.51719 c -7.25273,-7.99333 -8.31788,-7.72037 -8.2283,2.10881 0.0855,9.3755 0.44889,9.87701 4.59266,6.33682 1.68203,-1.43705 3.46067,-2.61285 3.95253,-2.61285 z m -104.376084,2.75197 c -0.542635,-1.0356 -2.964981,-3.83826 -5.382603,-6.22811 -5.479975,-5.41694 -5.823003,-6.37747 -5.528423,-15.48124 0.225133,-6.968281 0.201865,-7.139895 -0.94362,-6.776401 -1.062477,0.337342 -3.326405,-0.140282 -7.381984,-1.556871 -0.796573,-0.278504 -3.460466,-0.631597 -5.919691,-0.785212 -5.350312,-0.334609 -6.140307,-0.766668 -8.40575,-4.600403 -5.451229,-9.224814 0.002,-12.656267 7.486071,-4.710975 l 1.619484,1.719242 2.754767,-1.071372 c 4.048052,-1.574314 5.583369,-1.712882 7.573933,-0.68359 2.536003,1.311412 2.987695,1.201996 5.853661,-1.417758 1.408793,-1.287748 2.872394,-2.221919 3.252509,-2.076099 0.559742,0.21486 3.165677,-3.889167 3.165677,-4.985927 0,-0.162857 -1.238339,-0.469413 -2.751963,-0.680856 -6.32766,-0.883405 -13.229216,-9.672885 -11.379745,-14.492597 0.722588,-1.883 -0.950812,-0.829627 -1.997757,1.257497 -1.128378,2.249496 -2.027106,7.097121 -1.315731,7.097121 0.348298,0 1.892926,4.776672 1.614561,4.993524 -0.05478,0.04101 -1.593482,0.215545 -3.416812,0.382512 -1.884368,0.172436 -4.164244,0.827973 -5.282558,1.51917 -3.46108,2.13905 -6.84873,0.64595 -8.901026,-3.922835 -1.820239,-4.052094 -0.463252,-21.511653 1.672311,-21.511653 0.260713,0 0.473523,-0.409197 0.473523,-0.909476 0,-0.500208 0.822912,-2.129608 1.828728,-3.620925 5.927705,-8.789074 10.405072,-12.237831 18.881637,-14.543848 l 2.460661,-0.669227 -0.958676,-1.463125 c -1.883546,-2.874722 0.280554,-3.942191 8.050875,-3.971007 15.263653,-0.05478 22.930648,8.801734 17.721778,20.475386 -0.656221,1.47106 -1.684207,3.77982 -2.284046,5.130577 -2.007602,4.520892 -1.329688,4.748828 2.477976,0.833322 10.745901,-11.050545 0.576848,-30.48384 -15.43383,-29.493971 -10.305224,0.637064 -29.848351,11.177485 -29.848351,16.098332 0,0.251819 -0.716912,1.231019 -1.593204,2.175937 -3.117438,3.361579 -4.938638,6.171916 -6.078031,9.378849 -2.45875,6.920318 -3.578024,19.039432 -2.19339,23.749727 1.643227,5.590074 0.124542,8.755128 -2.7124114,5.652549 C 4.6288993,75.696161 3.8785259,65.309434 6.758102,49.627075 8.7540752,38.757048 -10.61312,38.436456 -14.055518,49.282204 c -0.763656,2.406121 -3.346532,0.477625 -4.377946,-3.268457 -0.782407,-2.842014 -5.268125,-9.452556 -8.622661,-12.707185 -2.098812,-2.036338 -4.134199,-2.635702 -7.239384,-2.131798 l -2.099368,0.34077 0.367457,-5.203254 c 0.401668,-5.687307 -0.756882,-11.502851 -2.418782,-12.140598 -4.130782,-1.585133 -3.979148,-16.4826875 0.171752,-16.8838118 4.332024,-0.4187779 10.756233,4.0749451 15.572052,10.8922064 C -14.368919,19.977033 -5.1878237,25.96323 3.6024886,25.331236 12.842086,24.666794 13.744648,18.562286 5.3374712,13.596002 1.0283,11.05048 2.2148334,7.8865164 7.4682488,7.9143014 12.796926,7.9416406 17.372081,11.464332 21.032351,18.355696 c 2.138435,4.02616 2.687161,4.353994 4.301573,2.570088 1.224661,-1.353234 7.619916,-3.469975 10.483831,-3.469975 5.075156,0 -0.874232,-2.694482 -14.721632,-6.6674 -2.835645,-0.8136095 0.292877,-3.1589014 4.232196,-3.1725908 3.457177,-0.01367 10.048897,1.5005482 16.688929,3.8295658 10.139355,3.55646 12.627257,4.215286 18.311008,4.849061 6.220838,0.693655 7.17897,1.164504 10.295575,5.059763 6.926816,8.657351 13.094284,11.861827 31.469119,16.350823 13.35507,3.262712 14.94649,3.942132 14.14219,6.038003 -0.39209,1.022112 -0.36199,1.016564 -6.32089,1.162592 -9.75308,0.238812 -23.838184,4.755732 -33.589422,10.771081 -1.919126,1.183879 -4.677518,2.82669 -6.129757,3.650701 -2.535735,1.438827 -6.580429,5.336474 -7.985874,7.695732 -0.878264,1.474279 -3.241357,-0.930347 -2.673265,-2.720285 0.718696,-2.264275 -0.758594,-0.945532 -2.064816,1.84324 -1.333522,2.847076 -1.342139,2.965388 -0.340087,4.662055 0.987621,1.671974 0.986324,1.800478 -0.03417,3.248339 -6.114365,8.673913 -8.095143,13.002935 -10.87085,23.75848 -3.593764,13.925051 -1.35679,16.483291 7.655773,8.755341 2.858368,-2.45094 4.424541,-2.23397 3.979149,0.55153 -1.264688,7.90874 4.526567,8.17377 14.515181,0.66442 1.659236,-1.24735 3.172176,-2.26803 3.362134,-2.26803 0.190226,0 2.142605,-1.17319 4.339215,-2.6071 2.196599,-1.4339 4.169097,-2.60711 4.383344,-2.60711 0.214177,0 1.857613,-0.885308 3.65179,-1.967361 C 98.70808,91.946598 117.49644,83.6511 134.82654,77.711361 c 18.75271,-6.42729 23.72673,-7.387878 40.55491,-7.831566 9.95904,-0.262764 15.17674,-1.034286 28.09872,-4.155894 3.5514,-0.857947 4.96211,-1.355561 9.84902,-3.474422 3.49823,-1.516774 7.35175,-4.725629 9.27579,-7.723992 1.15288,-1.796576 2.26764,-2.887313 2.9511,-2.887313 1.4697,0 1.42103,1.750862 -0.10265,3.687708 -0.66032,0.839612 -1.04482,1.526492 -0.85419,1.526492 0.49269,0 -1.35903,3.460327 -2.49665,4.666365 -0.52346,0.55563 -2.56973,1.953954 -4.54655,3.108264 -1.97681,1.154241 -3.74744,2.34646 -3.93466,2.649392 -0.8119,1.313739 -12.61638,5.401691 -17.67306,6.120248 -1.11524,0.158755 -2.41878,0.402352 -2.89676,0.541267 -3.08603,0.898312 -13.05123,1.525531 -23.75355,1.495011 -13.19268,-0.04101 -16.74846,0.539208 -28.09879,4.556741 -1.59321,0.563842 -4.20031,1.333937 -5.79358,1.71111 -1.5932,0.377034 -4.72173,1.34412 -6.95226,2.148835 -7.38357,2.663825 -12.14436,4.430564 -13.90454,5.159868 -9.25815,3.836268 -11.27382,4.736571 -13.03687,5.822583 -1.11598,0.687573 -5.15699,2.727952 -8.979977,4.534234 -3.822989,1.806358 -7.237265,3.473258 -7.587267,3.704338 -8.901779,5.87562 -19.355704,14.06397 -23.117179,18.10709 -5.55504,5.97108 -8.53787,7.30262 -10.020837,4.47326 z m -19.7493,-64.61338 c 0.759962,-0.565902 2.075148,-1.379641 2.922694,-1.808006 0.847546,-0.428355 2.388747,-2.087322 3.425014,-3.68648 1.036207,-1.599158 2.611136,-3.324839 3.49988,-3.834895 3.714532,-2.131867 5.503718,-8.445154 3.192362,-11.264653 l -1.340634,-1.635432 -3.253271,0.94574 c -4.252918,1.236359 -8.51269,5.648854 -8.51269,8.817958 0,2.456145 -1.140621,4.974427 -3.609841,7.970056 -3.708312,4.498792 -0.9144,7.915259 3.676486,4.495712 z m 137.395044,52.69694 c -0.56316,-0.58985 -1.41454,-1.66916 -1.8925,-2.39804 -1.27954,-1.95123 -2.04744,-2.66198 -4.47464,-4.14167 -1.20344,-0.73361 -2.48804,-1.73677 -2.85467,-2.22931 -0.80465,-1.08067 -3.33018,-2.37301 -8.13408,-4.16207 -4.64043,-1.728203 -5.35941,-3.067128 -3.18622,-5.933223 1.73302,-2.285492 3.13824,-2.628996 4.27763,-1.045647 1.63338,2.269753 2.82793,2.02881 2.42529,-0.489264 l -0.36813,-2.300816 h 2.10182 c 1.15596,0 2.10176,0.260714 2.10176,0.579582 0,0.318879 0.32572,0.58096 0.72418,0.58301 0.39824,0.002 1.37601,0.338036 2.17258,0.746679 0.79663,0.408514 2.75196,1.212337 4.34524,1.785966 4.67347,1.682573 9.75089,4.197642 11.12833,5.512413 0.70366,0.67127 1.52054,1.22109 1.81541,1.22109 0.29491,0 0.661,0.65417 0.81387,1.45341 0.2046,1.07166 0.0978,1.30424 -0.40646,0.88525 -0.37635,-0.31271 -2.8828,-0.72157 -5.56934,-0.90906 l -4.88472,-0.34077 2.55154,2.20755 c 1.40339,1.21419 2.91694,2.42419 3.36343,2.68895 1.55981,0.92465 2.04147,3.33353 0.91543,4.57789 -2.26121,2.49857 -5.46273,3.28384 -6.96569,1.70857 z M 61.195713,111.67236 c -0.310657,-0.80882 1.692081,-4.65535 2.245186,-4.3128 0.1656,0.10265 1.434389,-0.79403 2.819985,-1.99214 11.581194,-10.013935 21.174775,-16.785279 30.751375,-21.705027 0.869992,-0.446838 1.73266,-1.056801 1.917147,-1.355215 0.184745,-0.298344 0.701792,-0.542634 1.149584,-0.542634 1.46853,0 26.9776,-13.017506 30.09791,-15.359241 0.96422,-0.723619 3.64323,-2.259896 5.95342,-3.41386 5.35591,-2.675533 5.28071,-2.892245 -0.86903,-2.505217 -5.66391,0.356509 -7.7424,1.057009 -17.55036,5.91559 -7.90431,3.915506 -15.96751,7.384728 -19.962939,8.589121 -5.474147,1.650142 -13.809884,6.244117 -15.900347,8.762874 -0.905572,1.091213 -2.349333,1.19735 -2.349333,0.172436 0,-2.64747 16.26631,-13.87894 27.519389,-19.001375 2.23048,-1.015336 6.01077,-2.753608 8.40062,-3.862759 6.12621,-2.843311 16.61112,-7.110463 19.69811,-8.01672 1.4339,-0.420836 4.17135,-1.311155 6.08323,-1.978183 3.76564,-1.313751 15.66792,-3.867197 21.72583,-4.660966 2.07125,-0.271659 8.19793,-1.155401 13.61487,-1.964494 11.16908,-1.668268 12.00595,-1.741351 10.73489,-0.937528 -0.46873,0.296294 -0.67537,0.715823 -0.45914,0.931921 0.52279,0.522785 -3.17341,2.994193 -6.15475,4.115182 -1.31053,0.492681 -3.246,1.278299 -4.30116,1.745591 -1.05516,0.467363 -5.35687,1.982968 -9.55937,3.368087 l -7.64092,2.518351 9.55936,0.278494 c 5.25765,0.153278 10.99998,0.456417 12.76077,0.674022 2.12009,0.26207 4.70475,0.08558 7.65207,-0.523477 5.43892,-1.123446 4.91839,-1.142881 5.6427,0.21076 1.3318,2.488446 -5.0549,3.590753 -23.73809,4.096905 -9.44831,0.255919 -17.50301,0.736566 -18.82907,1.123386 -2.93193,0.855204 -9.71826,3.345433 -12.74585,4.677042 -1.27461,0.560416 -3.22993,1.401811 -4.34517,1.869371 -1.11523,0.467363 -5.28659,2.595407 -9.26972,4.728433 -3.98303,2.133106 -9.97937,5.052442 -13.32515,6.487436 -5.60061,2.40209 -13.437376,6.354009 -20.531828,10.353876 -1.57377,0.887307 -4.571925,2.876228 -6.662536,4.419895 -2.0906,1.543658 -6.668974,4.8221 -10.174044,7.285503 -3.50508,2.46341 -7.830408,5.85729 -9.611719,7.54198 -3.476611,3.28796 -3.873763,3.49502 -4.345712,2.26516 z M 212.43788,47.727314 c 1.50179,-6.092126 10.43593,-11.638547 15.22942,-9.454468 l 1.59068,0.724718 -1.35651,1.098473 c -0.74608,0.604217 -2.43987,1.372322 -3.76394,1.707069 -4.30733,1.089034 -6.8057,2.47545 -9.04499,5.019457 -2.55353,2.900992 -3.20113,3.121678 -2.65466,0.904751 z m -60.01722,-4.458477 c -0.11701,-0.110863 -4.6453,-0.342147 -10.06231,-0.513215 -9.21182,-0.2915 -13.74189,-0.945602 -15.02456,-2.169301 -1.0282,-0.980904 0.3134,-1.346586 6.4977,-1.771118 6.51406,-0.446828 13.7152,-1.416242 15.18946,-2.044144 0.47764,-0.203232 1.38553,-0.468729 2.01685,-0.589844 0.63159,-0.120431 4.1509,-1.230127 7.8213,-2.465456 18.0319,-6.068729 55.22946,-12.29764 56.93721,-9.534315 0.54058,0.874707 -0.23539,3.702962 -1.01602,3.702962 -0.62132,0 -3.28405,1.075344 -8.69279,3.510964 -0.63706,0.286716 -3.24436,1.073016 -5.79358,1.74676 -2.54913,0.674012 -6.58405,1.870134 -8.96643,2.658485 -3.74889,1.240598 -17.17457,4.615461 -20.5807,5.173418 -0.63706,0.104702 -4.2872,0.603535 -8.11095,1.109152 -3.82375,0.505677 -7.63847,1.024637 -8.47712,1.153419 -0.83865,0.128643 -1.62077,0.143017 -1.73806,0.03418 z m -19.33195,-9.011543 c -0.95594,-0.242913 -2.92735,-0.47283 -4.38089,-0.51047 -4.0679,-0.105375 -11.60447,-2.229853 -22.84887,-6.440495 -0.63706,-0.238812 -3.93323,-1.640008 -7.32445,-3.114218 -3.391134,-1.474209 -6.319029,-2.680317 -6.506451,-2.680317 -0.187492,0 -1.714597,-0.868209 -3.393603,-1.929388 C 86.95537,18.521297 85.099124,17.47661 84.509418,17.260858 83.919563,17.045304 82.746581,16.345706 81.902314,15.706651 80.408668,14.575956 66.874679,5.4669134 58.470306,-0.06424689 48.67493,-6.5109 40.03428,-10.227967 25.907969,-14.071969 18.67015,-16.041527 9.6795587,-18.850693 8.3685521,-19.552353 c -3.1448061,-1.68305 -2.7364311,-4.080076 0.5221001,-3.062624 2.1354928,0.667171 10.4576208,1.701594 17.3073118,2.151851 9.720104,0.639115 18.394492,2.156981 26.360724,4.612991 2.549138,0.785895 6.199077,1.878687 8.110952,2.428298 3.760791,1.081229 14.421712,6.3314222 19.657744,9.6808955 1.787125,1.1431551 3.498503,2.0784944 3.803078,2.0784944 0.304506,0 2.320043,1.72390233 4.478734,3.8307907 4.45293,4.3461287 7.31431,6.6982649 11.197453,9.2047104 1.481051,0.955932 3.970181,2.725138 5.531431,3.931522 14.70685,11.364076 22.89744,15.414593 35.67601,17.643079 1.03106,0.179974 1.44786,0.542635 1.24155,1.079999 -0.34214,0.891339 -6.00865,1.033534 -9.16659,0.229918 z m 103.70462,-10.4156 c -7.40588,-1.691606 -9.25248,-2.307383 -15.6426,-5.21625 -2.23048,-1.015406 -5.201,-2.238411 -6.60111,-2.71775 -1.40009,-0.479675 -5.91017,-2.412827 -10.02248,-4.296512 -8.70559,-3.9876969 -8.268,-3.9247473 -11.87113,-1.7085741 -10.99587,6.7631951 -40.58207,10.4888221 -55.51186,6.9903091 -2.54915,-0.597372 -5.2866,-1.207067 -6.08323,-1.355006 -5.99278,-1.112499 -18.53675,-4.955744 -19.84291,-6.0795365 -2.44348,-2.1022395 0.26003,-2.4125599 8.25583,-0.947384 13.17693,2.4146095 38.18688,3.8660375 44.43701,2.5788345 1.5293,-0.314768 3.69298,-0.66785 4.80822,-0.784449 1.11524,-0.11633 3.20092,-0.7484714 4.63482,-1.4044845 1.4339,-0.6562209 3.51958,-1.4841347 4.6349,-1.8404365 1.75592,-0.5611085 5.2142,-3.0058913 5.2142,-3.6864802 0,-2.45717161 -11.11406,-3.21008276 -37.65816,-2.55112362 -11.02967,0.27371152 -36.86117,-0.85267834 -42.00326,-1.83181178 -1.59327,-0.3031359 -5.677525,-1.2668733 -9.076188,-2.1411074 -5.695786,-1.4650391 -6.252932,-1.5160179 -7.117783,-0.6514319 -1.073433,1.0733578 -3.580561,-0.7067226 -3.026981,-2.1492495 0.513899,-1.3385169 9.596929,-2.3120399 16.444492,-1.7624952 7.70436,0.6185872 17.15794,0.6637495 19.86741,0.095113 1.1153,-0.234023 3.20098,-0.5323686 4.63488,-0.6637495 1.4339,-0.1306974 3.7803,-0.4967859 5.2142,-0.812991 9.54343,-2.1038819 31.41358,-3.1933209 41.82973,-2.0836959 5.56345,0.592585 15.76596,3.1485695 26.53426,6.6472845 3.66437,1.1905749 7.57502,2.3533004 8.69032,2.5838337 1.11524,0.2306016 5.25081,1.95299835 9.19014,3.827721 3.93938,1.8747793 7.27893,3.4086598 7.42134,3.4086598 0.39755,0 9.90765,4.47176 13.73988,6.46075 l 3.41133,1.770504 -0.40234,-4.8398396 c -0.78193,-9.41101118 -1.91167,-14.8528706 -4.21543,-20.3063634 -1.32737,-3.142273 -0.60422,-4.537585 1.22561,-2.363427 1.87841,2.232388 3.72424,7.8969803 4.44418,13.63862147 0.32366,2.58123523 0.67469,4.84099273 0.77993,5.02164973 0.10539,0.1806471 0.37842,2.9355522 0.60697,6.1220308 0.23538,3.283435 0.70363,5.977915 1.08074,6.219195 0.46942,0.300395 0.47557,0.428354 0.0205,0.434515 -0.63365,0.007 -0.60353,2.161228 0.0876,6.236925 0.37978,2.23855 0.92988,2.227941 -8.1338,0.15738 z M 93.443202,-14.614464 c -4.992068,-1.12728 -4.283913,-1.920564 2.107509,-2.360761 7.180609,-0.494732 14.246529,-1.749972 20.100809,-3.571179 9.38939,-2.921046 24.1618,-3.956154 33.6591,-2.358638 13.28936,2.235332 15.93232,2.877322 15.93232,3.870004 0,0.603533 -1.72056,1.229578 -2.33531,0.849668 -3.50753,-2.167794 -24.22516,-1.398734 -38.2196,1.418782 -13.35978,2.689692 -25.240431,3.50802 -31.244828,2.152124 z M 65.593776,-19.96812 c -0.478308,-0.078 -5.889102,-0.465994 -12.024824,-0.862327 -12.216009,-0.789179 -16.317432,-1.915842 -13.766035,-3.781459 0.60491,-0.442727 2.048799,-0.804368 3.20831,-0.804368 1.909271,0 14.551247,-3.873152 22.582549,-6.918669 4.670475,-1.771049 11.797432,-3.361926 18.772556,-4.190382 11.324929,-1.345155 7.979219,-1.703307 -17.034493,-1.823534 -2.071166,-0.0069 -5.890876,0.02737 -8.488263,0.08417 l -4.722479,0.102641 -1.175925,1.993097 c -3.582542,6.072012 -14.498768,10.169469 -29.644307,11.127185 -8.570103,0.541948 -24.14831499,0.58232 -24.6664433,0.06159 -0.4981588,-0.498154 1.09080638,-2.756409 1.93951183,-2.756409 1.60388297,0 8.03952277,-2.502337 14.78937647,-5.750537 16.196247,-7.794066 35.989886,-12.533719 39.709758,-9.508661 1.380394,1.122557 4.864673,0.357876 11.679396,-2.562485 0.796633,-0.341455 2.751964,-0.943826 4.345169,-1.338791 1.593274,-0.394828 3.573438,-1.054336 4.400451,-1.465382 11.727914,-5.829502 45.442496,-7.442277 64.832546,-3.101354 1.4339,0.320926 5.2142,1.098951 8.40068,1.728761 6.94056,1.371772 14.42034,3.320186 23.12093,6.022674 3.53444,1.097856 8.26697,2.526903 10.51674,3.175736 8.71224,2.512396 19.3527,8.641269 18.21056,10.489232 -0.38114,0.616534 -0.82825,0.622008 -2.40469,0.02736 -3.21918,-1.214046 -4.7892,-1.880328 -5.70222,-2.419881 -2.27701,-1.34577 -12.54829,-5.350713 -17.67033,-6.889929 -0.95594,-0.287396 -3.9541,-1.196392 -6.66261,-2.020193 -2.70844,-0.823804 -6.87988,-1.76674 -9.26971,-2.095398 -2.38983,-0.328453 -4.86658,-0.822434 -5.50385,-1.097308 -5.33135,-2.299517 -40.42724,-1.802937 -42.83623,0.60627 -0.56521,0.56453 -0.45573,0.601481 2.57105,0.864654 0.79656,0.06912 2.36082,0.297661 3.47612,0.507734 1.11524,0.210073 4.89554,0.650748 8.40061,0.979818 8.02789,0.753391 21.4307,3.464158 26.36072,5.331485 2.07118,0.784458 5.4604,2.018347 7.53158,2.741904 2.07125,0.723623 4.27647,1.572949 4.90053,1.887375 1.11893,0.563846 7.49435,2.812315 11.19144,3.946917 1.04379,0.320242 1.75147,0.819012 1.57275,1.108257 -0.19161,0.309293 -0.97224,0.279869 -1.89772,-0.07253 -3.1331,-1.191603 -14.45578,-4.071456 -20.40183,-5.18902 -13.64778,-2.565221 -15.52968,-2.837974 -19.65246,-2.848239 -3.03574,-0.0069 -4.58398,0.247025 -5.26737,0.865202 -2.11846,1.91721 -24.34853,9.34026 -31.277671,10.444138 -10.259784,1.634535 -17.769461,2.535661 -23.708854,2.844749 -3.958554,0.205967 -7.34778,0.446834 -7.531646,0.534422 -0.184075,0.08827 -0.725402,0.09648 -1.203373,0.02052 z m 166.958534,-0.398249 c -0.33941,-0.4092 -1.1617,-2.038398 -1.8273,-3.620927 -0.6658,-1.582599 -1.90873,-3.452526 -2.76251,-4.155348 -1.87143,-1.540721 -1.38566,-2.329899 0.84612,-1.374647 3.26961,1.399486 7.75424,9.894526 5.22336,9.894526 -0.4742,0 -1.14027,-0.334613 -1.47967,-0.743604 z M -42.456008,-50.113311 c -4.119491,-1.230333 -9.320684,-1.625982 -11.789359,-0.896884 -3.710293,1.09594 -7.03965,1.255172 -7.03965,0.336665 0,-0.447518 0.25387,-0.81388 0.564527,-0.81388 0.310667,0 2.406538,-1.585473 4.658024,-3.523212 4.621413,-3.977504 6.018845,-4.563246 12.158112,-5.095683 l 4.345167,-0.377037 -3.186409,-1.078558 c -9.474516,-3.207007 -7.227755,-6.803505 4.445481,-7.115946 10.658801,-0.285345 13.870044,1.611612 14.478164,8.552176 0.344197,3.929605 -1.796704,6.219131 -6.399643,6.843809 -2.591493,0.351719 -3.661429,0.831945 -5.075839,2.278646 -1.989129,2.034496 -2.93261,2.151781 -7.158506,0.88963 z m 221.313818,-3.137211 c -2.5492,-0.590531 -5.67773,-1.208297 -6.95227,-1.372182 -3.63707,-0.467362 -11.88536,-2.125095 -14.98492,-3.011167 -1.55017,-0.443411 -3.5055,-0.813332 -4.34518,-0.822639 -0.83974,-0.0069 -3.35173,-0.522788 -5.5822,-1.141787 -2.23054,-0.618587 -4.85064,-1.132616 -5.82252,-1.141854 -0.97188,-0.0069 -2.01473,-0.240866 -2.31745,-0.514577 -0.73006,-0.660328 -7.39178,-1.718359 -17.35172,-2.75641 -13.62548,-1.420151 -14.45251,-1.56946 -14.65772,-2.645829 -0.16559,-0.869307 0.58984,-0.981051 6.94625,-1.027376 3.92268,-0.02737 8.175,-0.156699 9.44954,-0.28466 15.18824,-1.523613 29.91759,0.0069 42.58269,4.431385 6.19669,2.163688 20.37548,8.478481 21.14645,9.417996 0.31889,0.387985 0.93782,0.585057 1.37595,0.437937 0.48242,-0.162173 0.69318,0.04791 0.53443,0.528263 -0.39005,1.183938 -4.67191,1.142265 -10.02099,-0.09785 z M 21.693228,-53.912219 c 0.271659,-0.821475 0.920005,-1.197965 7.111494,-4.130918 2.230546,-1.056594 4.576938,-2.18579 5.2142,-2.509316 0.637063,-0.323665 2.071176,-1.050231 3.186478,-1.614898 3.207073,-1.623928 8.266766,-4.480585 9.849025,-5.560649 13.366546,-9.124165 17.105169,-10.804752 32.099422,-14.429443 16.308864,-3.942469 43.633793,-7.343741 45.334583,-5.642968 0.75742,0.757427 -1.11695,2.053313 -3.45473,2.388542 -6.30193,0.903657 -13.32221,2.27324 -18.07151,3.525469 -2.86781,0.756196 -6.6481,1.676139 -8.400674,2.044417 -2.988448,0.628168 -5.05373,1.362673 -18.249683,6.492501 -12.915132,5.020617 -20.218506,8.17254 -26.991291,11.648467 -8.424283,4.323612 -14.207189,6.438237 -19.936436,7.290163 -2.230546,0.331875 -4.930228,0.750996 -5.999272,0.931782 -1.450605,0.245656 -1.879782,0.135487 -1.691606,-0.433149 z m 193.641402,-4.450955 c -0.94355,-0.57411 -8.23324,-7.624775 -16.1994,-15.667713 -13.56711,-13.697811 -18.53579,-18.112847 -25.16022,-22.356811 -7.79078,-4.991122 -7.89753,-8.342502 -0.15465,-4.859602 1.49611,0.67333 4.13168,1.86219 5.85681,2.642677 3.76722,1.704404 12.95934,8.738444 19.79473,15.147257 11.30338,10.598033 23.34654,29.649705 15.86287,25.094192 z m -230.850609,-0.679489 c 0,-0.33119 1.629479,-2.22144 3.620995,-4.200304 1.9915258,-1.978864 3.9543157,-4.119355 4.3617299,-4.756624 2.151718,-3.365622 6.2505355,-10.377694 8.1047311,-13.865186 0.8585615,-1.614896 2.0001436,-3.587876 2.5368943,-4.384512 2.037844,-3.024373 1.9248716,-3.914276 -0.5022597,-3.956428 -1.204403,-0.02052 -4.0147988,-0.725264 -6.245345,-1.565154 -10.0107136,-3.769547 -20.9677206,-4.601225 -30.5732776,-2.320726 -4.473256,1.062002 -4.510619,1.061249 -5.793573,-0.117013 -2.12845,-1.954361 -5.057019,-2.309018 -5.057019,-0.612429 0,0.753325 -0.550162,2.924883 -1.223421,4.825738 -1.181066,3.336677 -1.620099,9.07346 -1.08527,14.182759 0.378411,3.612852 -6.179166,8.532813 -8.977249,6.735625 -2.065907,-1.326884 -3.301373,-4.536559 -2.562351,-6.656658 0.496107,-1.42282 0.428364,-2.99406 -0.296978,-6.944466 -1.695638,-9.226802 2.440484,-15.31558 9.510721,-14.000741 1.899484,0.353093 2.842896,0.279872 3.476127,-0.271658 2.45971,-2.141308 16.052825,-6.46362 24.710383,-7.85736 7.098697,-1.14281 11.110356,0.25524 19.5628998,6.816438 3.9529388,3.068573 8.2291246,5.398818 10.0978217,5.502757 1.4473853,0.08073 15.1703825,-8.524665 16.8895555,-10.590695 1.491049,-1.79193 13.17332,-8.42224 16.801288,-9.53578 0.796642,-0.24428 3.599717,-1.46401 6.22906,-2.71008 2.629402,-1.24607 5.88828,-2.62113 7.241989,-3.05571 1.353709,-0.43452 5.850511,-2.01137 9.992854,-3.50384 8.91211,-3.21106 14.001906,-4.6791 17.960046,-5.18027 1.593204,-0.20186 4.516711,-0.61996 6.496598,-0.92987 5.923317,-0.9265 21.929749,-0.72752 27.158649,0.33735 18.09827,3.68676 29.8277,7.5701 44.35499,14.68482 12.54274,6.14278 15.55569,8.01913 15.55569,9.68754 0,1.19763 -0.79657,1.36411 -2.63058,0.55016 -0.94299,-0.41878 -3.4092,-1.3414 -5.48038,-2.05051 -2.07123,-0.70905 -4.54798,-1.63131 -5.50393,-2.04935 -0.95593,-0.41809 -3.56302,-1.33255 -5.79356,-2.03209 -2.23049,-0.69956 -4.84853,-1.61888 -5.81788,-2.04306 -1.58772,-0.69475 -4.43344,-1.49023 -8.31254,-2.32375 -0.76154,-0.16353 -3.56085,-0.92815 -6.22064,-1.69892 -2.65979,-0.77077 -6.20804,-1.55509 -7.885,-1.74286 -1.67704,-0.18749 -5.13483,-0.71281 -7.68397,-1.16677 -9.23399,-1.64431 -27.292089,-2.46004 -33.053975,-1.49315 -11.474869,1.92562 -20.423649,7.54923 -28.727095,18.05257 -5.551681,7.022603 -13.98158,15.500806 -17.350619,17.450178 -6.000648,3.471959 -15.731768,6.458492 -11.502444,3.530191 1.569044,-1.086429 8.090566,-7.016042 13.869569,-12.610834 2.071166,-2.005146 5.981818,-6.229327 8.690325,-9.387125 2.708448,-3.15775 6.204009,-6.75555 7.767795,-7.99512 1.563844,-1.2395 2.568433,-2.34529 2.232458,-2.45731 -0.758457,-0.25251 -15.274806,6.93572 -20.583703,10.19315 -2.156502,1.32312 -4.24219,2.41003 -4.634825,2.41523 -5.847569,0.078 -25.922584,15.149435 -34.3281154,25.771827 -9.1316965,11.540009 -19.3968916,19.652879 -19.3968916,15.329816 z m -5.793505,-18.310325 c -0.478307,-0.178597 -1.837633,-0.810665 -3.021432,-1.404344 -1.1838,-0.593955 -4.024239,-1.53121 -6.31199,-2.083354 -4.910516,-1.185238 -11.011399,-6.567292 -7.444468,-6.567292 0.331875,0 1.35248,-0.554264 2.268662,-1.231631 1.111202,-0.821545 2.212608,-1.141308 3.307872,-0.960385 1.506026,0.249077 15.487815,3.25299 20.618936,4.430291 1.260647,0.289449 3.4247471,0.272342 5.145228,-0.04106 5.231237,-0.950805 5.6032786,1.662111 0.4222032,2.966208 -1.7096047,0.430412 -4.8100642,1.655406 -6.8899272,2.7224 -3.919003,2.010478 -6.598358,2.728286 -8.095222,2.168683 z"
       id="path1049" />
  </g>
</svg>
