<?xml version="1.0" encoding="UTF-8" standalone="no"?>
<svg
   width="500.44141pt"
   height="89.199219pt"
   viewBox="0 0 500.44142 89.199222"
   version="1.1"
   id="svg600"
   xmlns="http://www.w3.org/2000/svg"
   xmlns:svg="http://www.w3.org/2000/svg">
  <defs
     id="defs604" />
  <path
     fill-rule="nonzero"
     fill="#2494ca"
     fill-opacity="1"
     d="m 297.65234,61.65625 c -0.51172,-0.886719 -1.13672,-1.273437 -2.05078,-1.273437 -1.29687,0 -2.27734,0.863281 -2.27734,2.023437 0,0.84375 0.51562,1.472656 1.5625,1.914063 l 0.23828,0.105468 0.23828,0.101563 0.25,0.101562 c 0.19531,0.08203 0.39062,0.183594 0.55859,0.296875 0.34375,0.238282 0.52344,0.570313 0.52344,1.003906 0,0.726563 -0.52344,1.261719 -1.24219,1.261719 -0.46484,0 -0.89843,-0.226562 -1.09375,-0.589843 -0.11328,-0.195313 -0.15625,-0.378907 -0.21484,-0.832032 l -1.16016,0.261719 c 0.20313,1.421875 1.10547,2.242187 2.46094,2.242187 1.375,0 2.40234,-1.046874 2.40234,-2.460937 0,-1.011719 -0.55859,-1.695313 -1.77734,-2.207031 -1.08203,-0.433594 -0.98047,-0.390625 -1.21875,-0.558594 -0.25,-0.171875 -0.36719,-0.386719 -0.36719,-0.640625 0,-0.535156 0.48047,-0.945313 1.10938,-0.945313 0.52344,0 0.78515,0.171876 1.13672,0.753907 z m 6.32422,-0.04687 v -1.078125 h -4.1875 v 7.59375 h 4.1875 v -1.082031 h -3.03906 v -2.527349 h 2.94922 v -1.082031 h -2.94922 v -1.824219 z m 3.26563,-1.078125 h -1.14844 v 7.59375 h 1.14844 z m 4.39453,1.078125 h 1.74609 v -1.078125 h -4.63672 v 1.07812 h 1.74219 V 68.125 h 1.14844 z m 8.0664,-0.01172 v 6.527344 h 1.14844 v -7.59375 h -1.83203 l -0.625,1.066406 z m 7.08203,0 -3.78906,6.207031 0.91016,0.582032 4.79297,-7.855469 h -5.66016 v 1.066406 z m 4.54688,2.996094 c 0.46875,0.01172 0.64062,0.03516 0.85547,0.125 0.42187,0.171875 0.67187,0.617187 0.67187,1.175781 0,0.75 -0.54687,1.308594 -1.27734,1.308594 -0.73828,0 -1.20703,-0.398438 -1.32031,-1.136719 h -1.10547 c 0.0469,0.488281 0.10547,0.726563 0.25,1.023438 0.39062,0.71875 1.19922,1.160156 2.10937,1.160156 1.45703,0 2.46875,-0.953125 2.46875,-2.3125 0,-0.828125 -0.3164,-1.445313 -0.93359,-1.820313 0.55859,-0.386718 0.82031,-0.921874 0.82031,-1.640624 0,-1.207032 -0.93359,-2.070313 -2.2539,-2.070313 -1.32032,0 -2.02735,0.636719 -2.26563,2.058594 h 1.13672 c 0.16016,-0.75 0.46875,-1.027344 1.10547,-1.027344 0.69531,0 1.16406,0.457031 1.16406,1.117187 0,0.421876 -0.23047,0.820313 -0.55859,0.957032 -0.19532,0.09375 -0.36328,0.105468 -0.86719,0.105468 z m 7.95312,-2.996094 -3.79296,6.207031 0.91015,0.582032 4.79688,-7.855469 h -5.66016 v 1.066406 h 3.74609"
     id="path586" />
  <path
     fill-rule="nonzero"
     fill="#2494ca"
     fill-opacity="1"
     d="m 294.50781,48.128906 h -1.14844 v 7.597657 h 1.14844 z m 2.38281,7.597657 h 1.14844 V 50.40625 l 5.53516,5.785156 v -8.0625 h -1.14844 v 5.273438 l -5.53516,-5.785157 z m 13.64453,-3.089844 h 0.53516 c 1.57031,0 2.57422,-0.875 2.57422,-2.253906 0,-0.695313 -0.32031,-1.378907 -0.83203,-1.777344 -0.48828,-0.363282 -0.96875,-0.476563 -2.12891,-0.476563 h -1.29687 v 7.597657 h 1.14843 z m 0,-1.054688 V 49.1875 h 0.375 c 1.09375,0 1.62891,0.386719 1.62891,1.164063 0,0.832031 -0.51172,1.230468 -1.58594,1.230468 z m 5.84766,-3.453125 h -1.14844 v 4.886719 c 0,1.640625 1.19532,2.859375 2.8125,2.859375 1.60547,0 2.80078,-1.21875 2.80078,-2.859375 v -4.886719 h -1.14843 v 4.578125 c 0,0.671875 -0.0586,0.992188 -0.24219,1.3125 -0.27344,0.476563 -0.82031,0.773438 -1.41016,0.773438 -0.60547,0 -1.15234,-0.296875 -1.42578,-0.773438 -0.18359,-0.320312 -0.23828,-0.640625 -0.23828,-1.3125 z m 6.83984,7.597657 h 1.74219 c 1.02735,0 1.50391,-0.136719 2.00391,-0.546876 0.49219,-0.410156 0.76562,-0.992187 0.76562,-1.640624 0,-0.890626 -0.5039,-1.617188 -1.29687,-1.902344 0.41797,-0.375 0.61328,-0.820313 0.61328,-1.355469 0,-0.707031 -0.34375,-1.402344 -0.86719,-1.765625 -0.39844,-0.273438 -0.91015,-0.386719 -1.82422,-0.386719 h -1.13672 z m 1.14844,-4.328126 V 49.1875 h 0.40235 c 0.77343,0 1.19531,0.386719 1.19531,1.09375 0,0.730469 -0.42188,1.117187 -1.24219,1.117187 z m 0,3.246094 v -2.289062 h 0.58203 c 1.10547,0 1.65235,0.386718 1.65235,1.171875 0,0.707031 -0.54688,1.117187 -1.52735,1.117187 z m 6.46485,-6.515625 h -1.14844 v 7.597657 h 3.38281 v -1.082032 h -2.23437 z m 5.375,0 h -1.14844 v 7.597657 h 1.14844 z m 7.74218,0.410157 c -0.70703,-0.410157 -1.23047,-0.558594 -2.03906,-0.558594 -2.14062,0 -3.94922,1.800781 -3.94922,3.929687 0,2.234375 1.73047,3.964844 3.94922,3.964844 0.70703,0 1.36719,-0.183594 2.03906,-0.570313 v -1.378906 c -0.73047,0.617188 -1.30859,0.867188 -2.01562,0.867188 -1.60547,0 -2.82422,-1.230469 -2.82422,-2.847656 0,-1.605469 1.23047,-2.882813 2.77734,-2.882813 0.76563,0 1.34375,0.238281 2.0625,0.832031 z m 6.35547,5.339843 0.79688,1.847657 h 1.25 l -3.6211,-8.074219 -3.75781,8.074219 h 1.23047 l 0.85547,-1.847657 z m -0.46875,-1.078125 h -2.30078 l 1.17578,-2.574218 z m 13.07422,-4.261718 c -0.70312,-0.410157 -1.23047,-0.558594 -2.03516,-0.558594 -2.14453,0 -3.95312,1.800781 -3.95312,3.929687 0,2.234375 1.73047,3.964844 3.95312,3.964844 0.70313,0 1.36329,-0.183594 2.03516,-0.570313 v -1.378906 c -0.72656,0.617188 -1.30859,0.867188 -2.01562,0.867188 -1.60547,0 -2.82422,-1.230469 -2.82422,-2.847656 0,-1.605469 1.23047,-2.882813 2.78125,-2.882813 0.76172,0 1.34375,0.238281 2.05859,0.832031 z m 5.45703,-0.558594 c -2.21094,0 -3.98437,1.777344 -3.98437,3.976562 0,2.199219 1.75,3.917969 3.98437,3.917969 2.17578,0 3.95313,-1.777344 3.95313,-3.941406 0,-2.175781 -1.77735,-3.953125 -3.95313,-3.953125 z m -0.0117,1.082031 c 1.59375,0 2.81641,1.242187 2.81641,2.882813 0,1.570312 -1.25391,2.847656 -2.81641,2.847656 -1.57031,0 -2.82422,-1.253906 -2.82422,-2.847656 0,-1.628907 1.23047,-2.882813 2.82422,-2.882813 z m 5.17969,6.664063 h 1.18359 l 0.82032,-4.589844 2.1875,4.941406 2.24218,-4.929688 0.73047,4.578126 h 1.17188 l -1.4336,-8.167969 -2.69921,5.902343 -2.60938,-5.902343 z m 10.02344,0 h 1.18359 l 0.82031,-4.589844 2.1875,4.941406 2.24219,-4.929688 0.73047,4.578126 h 1.17188 l -1.4336,-8.167969 -2.69922,5.902343 -2.60937,-5.902343 z m 13.64062,-7.746094 c -2.21093,0 -3.98437,1.777344 -3.98437,3.976562 0,2.199219 1.7539,3.917969 3.98437,3.917969 2.17578,0 3.95313,-1.777344 3.95313,-3.941406 0,-2.175781 -1.77735,-3.953125 -3.95313,-3.953125 z m -0.0117,1.082031 c 1.59766,0 2.81641,1.242187 2.81641,2.882813 0,1.570312 -1.25391,2.847656 -2.81641,2.847656 -1.57031,0 -2.82421,-1.253906 -2.82421,-2.847656 0,-1.628907 1.23046,-2.882813 2.82421,-2.882813 z m 5.85547,6.664063 h 1.57032 c 1.35546,0 2.01953,-0.171876 2.78125,-0.730469 0.99218,-0.714844 1.52343,-1.777344 1.52343,-3.050781 0,-1.300782 -0.51172,-2.382813 -1.46875,-3.078126 -0.73828,-0.53125 -1.5039,-0.738281 -2.8125,-0.738281 h -1.59375 z m 1.14844,-1.082032 v -5.433594 h 0.51563 c 0.92187,0 1.52343,0.160157 2.02734,0.535157 0.64844,0.476562 1.03516,1.285156 1.03516,2.175781 0,0.898438 -0.375,1.6875 -1.03516,2.175781 -0.53516,0.386719 -1.10547,0.546875 -2.02734,0.546875 z m 10.67188,-0.765625 0.80078,1.847657 h 1.25 l -3.6211,-8.074219 -3.75781,8.074219 h 1.23047 l 0.85547,-1.847657 z m -0.46485,-1.078125 h -2.30078 l 1.17188,-2.574218 z m 0,0"
     id="path588" />
  <path
     fill-rule="nonzero"
     fill="#231f20"
     fill-opacity="1"
     d="m 137.16797,58.09375 v 2.070313 h 5.9375 c -0.0898,1.230468 -0.30078,2.011718 -0.8086,2.820312 -1.19922,2.011719 -3.75,3.421875 -6.15234,3.421875 -4.4375,0 -8.12891,-3.691406 -8.12891,-8.191406 0,-4.648438 3.66016,-8.308594 8.3086,-8.308594 2.64062,0 4.71093,1.167969 6.66015,3.75 l 1.65235,-1.5 c -2.55078,-3.03125 -5.03907,-4.351563 -8.3125,-4.351563 -5.87891,0 -10.5586,4.589844 -10.5586,10.382813 0,5.636719 4.65235,10.316406 10.26172,10.316406 2.96875,0 5.82031,-1.347656 7.61719,-3.597656 1.35156,-1.679687 1.86328,-3.449219 1.86328,-6.300781 V 58.09375 Z m 21.60547,-10.289063 c -5.73047,0 -10.44141,4.679688 -10.44141,10.382813 0,5.699219 4.67969,10.316406 10.44141,10.316406 5.66796,0 10.3789,-4.679687 10.3789,-10.347656 0,-5.671875 -4.71094,-10.351563 -10.3789,-10.351563 z m -0.0312,2.101563 c 4.53125,0 8.16015,3.6875 8.16015,8.28125 0,4.527344 -3.66015,8.21875 -8.16015,8.21875 -4.5,0 -8.16016,-3.691406 -8.16016,-8.21875 0,-4.621094 3.62891,-8.28125 8.16016,-8.28125 z m -2.85157,-6.8125 c -0.83984,0 -1.52734,0.691406 -1.52734,1.53125 0,0.839844 0.6875,1.53125 1.52734,1.53125 0.83985,0 1.53125,-0.691406 1.53125,-1.53125 0,-0.839844 -0.6914,-1.53125 -1.53125,-1.53125 z m 5.70313,0 c -0.83985,0 -1.53125,0.691406 -1.53125,1.53125 0,0.839844 0.6914,1.53125 1.53125,1.53125 0.83984,0 1.52734,-0.691406 1.52734,-1.53125 0,-0.839844 -0.6875,-1.53125 -1.52734,-1.53125 z m 15.20703,7.113281 h 4.85937 v -2.070312 h -11.9375 v 2.070312 h 4.82813 v 17.9375 h 2.25 z m 13.65625,0 h 4.85937 v -2.070312 h -11.9375 v 2.070312 h 4.82808 v 17.9375 h 2.25 z m 9.90234,-2.070312 h -2.25 v 20.007812 h 2.25 z m 5.125,20.007812 h 2.25 V 52.726563 l 15.57027,16.320312 V 48.136719 h -2.25 V 63.644531 L 205.48437,47.296875 Z M 238.7188,58.09375 v 2.070313 h 5.9375 c -0.0899,1.230468 -0.30078,2.011718 -0.8086,2.820312 -1.19921,2.011719 -3.75,3.421875 -6.15234,3.421875 -4.4375,0 -8.12891,-3.691406 -8.12891,-8.191406 0,-4.648438 3.66016,-8.308594 8.3125,-8.308594 2.63672,0 4.70704,1.167969 6.65625,3.75 l 1.65235,-1.5 c -2.55078,-3.03125 -5.03906,-4.351563 -8.3086,-4.351563 -5.88281,0 -10.5625,4.589844 -10.5625,10.382813 0,5.636719 4.65235,10.316406 10.26172,10.316406 2.96875,0 5.82032,-1.347656 7.61719,-3.597656 1.35156,-1.679687 1.86328,-3.449219 1.86328,-6.300781 V 58.09375 Z m 22.66797,-7.886719 v -2.070312 h -10.34766 v 20.007812 h 10.34766 v -2.070312 h -8.09766 v -7.828125 h 7.89063 v -2.070313 h -7.89063 v -5.96875 z m 3.95312,17.9375 h 2.25 V 52.726563 l 15.57026,16.320312 V 48.136719 h -2.25 V 63.644531 L 265.33984,47.296875 v 20.847656"
     id="path590" />
  <path
     fill-rule="nonzero"
     fill="#231f20"
     fill-opacity="1"
     d="m 347.10547,14.136719 h -2.25 v 12.867187 c 0,2.191407 0.35937,3.511719 1.32031,4.742188 1.28906,1.710937 3.50781,2.757812 5.81641,2.757812 2.28125,0 4.47265,-1.046875 5.79296,-2.757812 0.95704,-1.230469 1.32032,-2.582031 1.32032,-4.742188 V 14.136719 h -2.25 V 26.40625 c 0,2.070313 -0.15235,2.96875 -0.66016,3.839844 -0.78125,1.257812 -2.49219,2.160156 -4.20312,2.160156 -1.73829,0 -3.44922,-0.902344 -4.22657,-2.160156 -0.51172,-0.871094 -0.66015,-1.769531 -0.66015,-3.839844 z m 17.1289,20.007812 h 2.25 V 18.726563 l 15.57032,16.320312 V 14.136719 h -2.25 V 29.644531 L 364.23437,13.296875 Z m 25.23828,-20.007812 h -2.25 v 20.007812 h 2.25 z m 5.1211,0 h -2.46094 l 8.10156,21.179687 8.12891,-21.179687 h -2.42969 L 400.26172,29.375 Z m 26.80859,2.070312 v -2.070312 h -10.34765 v 20.007812 h 10.34765 v -2.070312 h -8.09765 v -7.828125 h 7.89062 v -2.070313 h -7.89062 v -5.96875 z m 9.17188,9 c 3.08984,-0.300781 5.03906,-2.429687 5.03906,-5.550781 0,-1.800781 -0.87109,-3.511719 -2.21875,-4.441406 -1.14063,-0.777344 -2.51953,-1.078125 -4.80078,-1.078125 h -3.23828 v 20.007812 h 2.25 v -8.757812 h 0.57031 l 6.02734,8.757812 h 2.73047 z m -2.96875,-1.800781 v -7.199219 h 1.32031 c 2.9375,0 4.5,1.199219 4.5,3.449219 0,2.460937 -1.53125,3.75 -4.41016,3.75 z m 22.78906,-6.480469 c -1.19922,-2.070312 -2.91016,-3.121094 -5.16016,-3.121094 -3.17968,0 -5.60937,2.222657 -5.60937,5.132813 0,2.25 1.17187,3.65625 4.05078,4.949219 l 0.59766,0.269531 0.60156,0.269531 0.60156,0.300782 c 0.66016,0.269531 1.22656,0.570312 1.73828,0.898437 1.10938,0.691406 1.64844,1.621094 1.64844,2.851563 0,2.21875 -1.76953,3.929687 -4.07813,3.929687 -2.10156,0 -3.48046,-1.261719 -4.01953,-3.660156 l -2.16015,0.597656 c 0.78125,3.300781 3,5.160156 6.21093,5.160156 3.53907,0 6.29688,-2.726562 6.29688,-6.179687 0,-2.488282 -1.31641,-4.078125 -4.52734,-5.488282 l -0.63282,-0.269531 -0.6289,-0.269531 -0.62891,-0.300781 c -0.57031,-0.242188 -1.08203,-0.539063 -1.55859,-0.839844 -0.83985,-0.570313 -1.26172,-1.289063 -1.26172,-2.160156 0,-1.769531 1.4414,-3.089844 3.30078,-3.089844 1.55859,0 2.42969,0.539063 3.44922,2.160156 z m 6.96875,-2.789062 h -2.25 v 20.007812 h 2.25 z m 9.82812,2.070312 h 4.85938 v -2.070312 h -11.9375 v 2.070312 h 4.82812 v 17.9375 h 2.25 z m 17.35157,12.269532 2.37109,5.667968 h 2.45703 l -9,-20.96875 -9.20703,20.96875 h 2.42969 l 2.39844,-5.667968 z m -0.8711,-2.070313 h -6.75 l 3.42188,-8.011719 z m -6.05859,-17.3125 c -0.83984,0 -1.53125,0.691406 -1.53125,1.53125 0,0.839844 0.69141,1.53125 1.53125,1.53125 0.83984,0 1.53125,-0.691406 1.53125,-1.53125 0,-0.839844 -0.69141,-1.53125 -1.53125,-1.53125 z m 5.69922,0 c -0.83985,0 -1.53125,0.691406 -1.53125,1.53125 0,0.839844 0.6914,1.53125 1.53125,1.53125 0.83984,0 1.53125,-0.691406 1.53125,-1.53125 0,-0.839844 -0.69141,-1.53125 -1.53125,-1.53125 z m 12.26953,7.113281 h 4.85937 v -2.070312 h -11.9375 v 2.070312 h 4.82813 v 17.9375 h 2.25 v -17.9375"
     id="path592" />
  <path
     fill-rule="nonzero"
     fill="#231f20"
     fill-opacity="1"
     d="m 137.16797,24.09375 v 2.070313 h 5.9375 c -0.0898,1.230468 -0.30078,2.011718 -0.8086,2.820312 -1.19922,2.011719 -3.75,3.421875 -6.15234,3.421875 -4.4375,0 -8.12891,-3.691406 -8.12891,-8.191406 0,-4.648438 3.66016,-8.308594 8.3086,-8.308594 2.64062,0 4.71093,1.167969 6.66015,3.75 l 1.65235,-1.5 c -2.55078,-3.03125 -5.03907,-4.351563 -8.3125,-4.351563 -5.87891,0 -10.5586,4.589844 -10.5586,10.382813 0,5.636719 4.65235,10.316406 10.26172,10.316406 2.96875,0 5.82031,-1.347656 7.61719,-3.597656 1.35156,-1.679687 1.86328,-3.449219 1.86328,-6.300781 V 24.09375 Z m 22.66797,-7.886719 v -2.070312 h -10.34766 v 20.007812 h 10.34766 v -2.070312 h -8.09766 v -7.828125 h 7.89062 v -2.070313 h -7.89062 v -5.96875 z m 13.125,-2.402344 c -5.73047,0 -10.4375,4.679688 -10.4375,10.382813 0,5.699219 4.67968,10.316406 10.4375,10.316406 5.67187,0 10.38281,-4.679687 10.38281,-10.347656 0,-5.671875 -4.71094,-10.351563 -10.38281,-10.351563 z m -0.0273,2.101563 c 4.52735,0 8.16016,3.6875 8.16016,8.28125 0,4.527344 -3.66016,8.21875 -8.16016,8.21875 -4.5,0 -8.16015,-3.691406 -8.16015,-8.21875 0,-4.621094 3.6289,-8.28125 8.16015,-8.28125 z m 19.60938,9.300781 c 3.08984,-0.300781 5.03906,-2.429687 5.03906,-5.550781 0,-1.800781 -0.87109,-3.511719 -2.21875,-4.441406 -1.14063,-0.777344 -2.51953,-1.078125 -4.80078,-1.078125 h -3.24219 v 20.007812 h 2.25 v -8.757812 h 0.57031 l 6.03125,8.757812 h 2.73047 z m -2.97266,-1.800781 v -7.199219 h 1.32031 c 2.94141,0 4.5,1.199219 4.5,3.449219 0,2.460937 -1.52734,3.75 -4.41015,3.75 z m 22.40234,0.6875 v 2.070313 h 5.94141 c -0.0898,1.230468 -0.30078,2.011718 -0.8125,2.820312 -1.19922,2.011719 -3.75,3.421875 -6.14844,3.421875 -4.4414,0 -8.1289,-3.691406 -8.1289,-8.191406 0,-4.648438 3.66015,-8.308594 8.30859,-8.308594 2.64063,0 4.71094,1.167969 6.66016,3.75 l 1.64843,-1.5 c -2.54687,-3.03125 -5.03906,-4.351563 -8.30859,-4.351563 -5.87891,0 -10.55859,4.589844 -10.55859,10.382813 0,5.636719 4.64843,10.316406 10.25781,10.316406 2.97266,0 5.82031,-1.347656 7.62109,-3.597656 1.35157,-1.679687 1.85938,-3.449219 1.85938,-6.300781 V 24.09375 Z m 11.32422,0.203125 v 1.917969 h 5.42969 v -1.917969 z m 19.92188,4.179688 2.37109,5.667968 h 2.45703 l -9,-20.96875 -9.20703,20.96875 h 2.42969 l 2.39844,-5.667968 z m -0.8711,-2.070313 h -6.75 l 3.42188,-8.011719 z m 9.72266,-12.269531 h -2.25 v 12.867187 c 0,2.191407 0.35938,3.511719 1.32031,4.742188 1.28907,1.710937 3.51172,2.757812 5.82032,2.757812 2.28125,0 4.46875,-1.046875 5.78906,-2.757812 0.96094,-1.230469 1.32031,-2.582031 1.32031,-4.742188 V 14.136719 h -2.25 V 26.40625 c 0,2.070313 -0.14844,2.96875 -0.66016,3.839844 -0.77734,1.257812 -2.48828,2.160156 -4.19921,2.160156 -1.73829,0 -3.44922,-0.902344 -4.23047,-2.160156 -0.50782,-0.871094 -0.66016,-1.769531 -0.66016,-3.839844 z m 27.28516,9.957031 v 2.070313 h 5.9414 c -0.0899,1.230468 -0.30083,2.011718 -0.81255,2.820312 -1.19922,2.011719 -3.75,3.421875 -6.14843,3.421875 -4.44141,0 -8.12891,-3.691406 -8.12891,-8.191406 0,-4.648438 3.66016,-8.308594 8.30859,-8.308594 2.64063,0 4.71094,1.167969 6.66016,3.75 l 1.64844,-1.5 c -2.54688,-3.03125 -5.03907,-4.351563 -8.3086,-4.351563 -5.8789,0 -10.55859,4.589844 -10.55859,10.382813 0,5.636719 4.64844,10.316406 10.25781,10.316406 2.97266,0 5.82031,-1.347656 7.6211,-3.597656 1.35156,-1.679687 1.85937,-3.449219 1.85937,-6.300781 V 24.09375 Z m 14.4375,-9.957031 h -2.25 v 12.867187 c 0,2.191407 0.35937,3.511719 1.32031,4.742188 1.28906,1.710937 3.50781,2.757812 5.82031,2.757812 2.27735,0 4.46875,-1.046875 5.78906,-2.757812 0.96094,-1.230469 1.32032,-2.582031 1.32032,-4.742188 V 14.136719 h -2.25 V 26.40625 c 0,2.070313 -0.15235,2.96875 -0.66016,3.839844 -0.78125,1.257812 -2.49219,2.160156 -4.19922,2.160156 -1.74219,0 -3.45312,-0.902344 -4.23047,-2.160156 -0.51172,-0.871094 -0.66015,-1.769531 -0.66015,-3.839844 z m 27.45312,2.789062 c -1.19922,-2.070312 -2.91015,-3.121094 -5.16015,-3.121094 -3.17969,0 -5.60938,2.222657 -5.60938,5.132813 0,2.25 1.17188,3.65625 4.05078,4.949219 l 0.60156,0.269531 0.59766,0.269531 0.60156,0.300782 c 0.66016,0.269531 1.23047,0.570312 1.73828,0.898437 1.10938,0.691406 1.65235,1.621094 1.65235,2.851563 0,2.21875 -1.77344,3.929687 -4.08203,3.929687 -2.10157,0 -3.48047,-1.261719 -4.01953,-3.660156 l -2.16021,0.597656 c 0.78125,3.300781 3,5.160156 6.21094,5.160156 3.53906,0 6.30078,-2.726562 6.30078,-6.179687 0,-2.488282 -1.32031,-4.078125 -4.53125,-5.488282 l -0.62891,-0.269531 -0.63281,-0.269531 -0.62891,-0.300781 c -0.57031,-0.242188 -1.07812,-0.539063 -1.55859,-0.839844 -0.83984,-0.570313 -1.26172,-1.289063 -1.26172,-2.160156 0,-1.769531 1.44141,-3.089844 3.30078,-3.089844 1.5586,0 2.42969,0.539063 3.44922,2.160156 z m 9.5625,-0.71875 h 4.85938 v -2.070312 h -11.94141 v 2.070312 h 4.83203 v 17.9375 h 2.25 z m 4.94531,8.089844 v 1.917969 h 5.42969 v -1.917969 h -5.42969"
     id="path594" />
  <path
     fill-rule="nonzero"
     fill="#68bcec"
     fill-opacity="1"
     d="M 82.945311,0 58.640621,52.792969 C 55.839841,57.785156 50.542969,61.1875 44.40625,61.1875 v 9.074219 c 10.8125,0 20.039061,-6.746094 23.726561,-16.253906 h 28.46484 l 11.160159,25.210942 h 10.87891 z m -0.17187,22.269531 9.76953,22.394532 h -20.71485 z m 0,0"
     id="path596" />
  <path
     fill-rule="nonzero"
     fill="#0d5f9d"
     fill-opacity="1"
     d="m 65.019531,17.144531 4.25781,-9.136718 C 62.183591,3.203125 53.621093,0.394531 44.40625,0.394531 19.882812,0.394531 0,20.273437 0,44.796875 c 0,24.523438 19.882812,44.40234 44.40625,44.40234 21.363281,0 39.199221,-15.08984 43.441401,-35.191402 h -10.19531 c -4.03515,14.589843 -17.375,25.316402 -33.246091,25.316402 -19.070313,0 -34.527344,-15.457028 -34.527344,-34.52734 0,-19.070312 15.457031,-34.527344 34.527344,-34.527344 7.738281,0 14.855471,2.578125 20.613281,6.875 z M 44.40625,54.003906 h 13.445311 c 0.27344,-0.398437 0.55078,-0.789062 0.78906,-1.210937 l 3.7461,-8.140625 H 44.40625 v 9.351562"
     id="path598" />
</svg>
